<?xml version="1.0" encoding="UTF-8"?>
<!DOCTYPE svg PUBLIC "-//W3C//DTD SVG 1.1//EN" "http://www.w3.org/Graphics/SVG/1.1/DTD/svg11.dtd">
<!-- Creator: CorelDRAW -->
<svg xmlns="http://www.w3.org/2000/svg" xml:space="preserve" width="500px" height="160px" style="shape-rendering:geometricPrecision; text-rendering:geometricPrecision; image-rendering:optimizeQuality; fill-rule:evenodd; clip-rule:evenodd"
viewBox="0 0 500.652 160.055"
 xmlns:xlink="http://www.w3.org/1999/xlink">
 <defs>
  <style type="text/css">
   <![CDATA[
    .fil0 {fill:white;fill-rule:nonzero}
   ]]>
  </style>
 </defs>
 <g id="Layer_x0020_1">
  <metadata id="CorelCorpID_0Corel-Layer"/>
  <path class="fil0" d="M10.8281 134.862l-0.902454 19.5746 -9.92569 5.28189 8.92315 -159.719 10.5273 0 8.87311 144.673 -9.92588 5.2659 -0.852225 -18.2143 -6.71734 3.1371zm1.05258 -24.8245l4.56194 -1.72863 -2.25586 -53.09 -2.30608 54.8186zm28.9754 -85.6933l0 36.4126 4.61198 -0.912314c0.353094,-0.069763 0.673631,-0.407788 0.902268,-1.02449 0.222497,-0.600334 0.300818,-1.53646 0.300818,-2.78494l0 -29.53c0,-1.74463 -0.250775,-2.60914 -0.852225,-2.56077l-4.96285 0.399974zm5.96557 59.8445c0,-1.52065 -0.147339,-2.49863 -0.401091,-3.00911 -0.247426,-0.497643 -0.653726,-0.663213 -1.103,-0.544151l-4.46148 1.1843 0 32.7793 4.96285 -1.87262c0.394021,-0.148642 0.654098,-0.447599 0.802181,-0.944312 0.152548,-0.511595 0.200545,-1.24848 0.200545,-2.24079l0 -25.3526zm9.32424 -31.931c0,3.28109 -0.229567,6.15012 -0.701909,8.61098 -0.479969,2.50086 -1.40363,4.3534 -2.70699,5.63387 1.3534,-0.0639959 2.35613,0.992495 2.95758,3.1531 0.60145,2.16079 0.902454,4.70575 0.902454,7.61868l0 34.1556c0,7.26633 -0.530943,12.7305 -1.65441,16.3735 -1.13221,3.67158 -3.15738,6.14826 -6.01562,7.44269l-17.8463 8.08265 0 -143.329 19.1999 0c1.95504,0 3.42657,1.4827 4.41144,4.41758 0.97017,2.89098 1.45386,6.75454 1.45386,11.6199l0 36.2204zm7.01816 76.7942l-1.80472 -23.464 10.6276 -3.24909c0.754928,-0.230869 1.15304,-1.21648 1.15304,-2.94493l0 -22.8078c0,-1.72863 -0.137108,-2.74922 -0.401091,-3.02511 -0.287796,-0.300632 -0.75065,-0.361093 -1.45367,-0.207987l-5.06312 1.1043c-0.75437,0.164455 -1.45386,0.191988 -2.10554,0.031998 -0.651493,-0.15999 -1.25332,-0.720326 -1.75449,-1.68045 -0.501177,-0.960311 -0.925708,-2.35669 -1.20327,-4.2254 -0.274029,-1.84472 -0.451134,-4.38558 -0.451134,-7.61868l0 -44.095c0,-5.13772 0.518664,-9.24518 1.60418,-12.3082 1.06989,-3.01878 2.75722,-4.56157 5.06312,-4.56157l13.5854 0 1.70445 22.6799 -11.179 0.784322c-0.802553,0.0561825 -1.20327,1.00849 -1.20327,2.86493l0 23.0158c0,1.28029 0.100459,2.12861 0.351047,2.56077 0.250589,0.431972 0.651307,0.590288 1.15286,0.512153l6.16612 -0.960311c1.60511,-0.250031 2.8214,0.473458 3.65949,2.20879 0.816134,1.68975 1.25332,4.84992 1.25332,9.4433l0 40.0936c0,6.70599 -0.534291,11.674 -1.65441,14.869 -1.13556,3.23905 -3.10808,5.36282 -5.91534,6.41819l-12.1315 4.56157zm42.5106 -129.052l2.4564 21.1272 -6.56721 0.384161 0 93.8719 -10.0762 3.05711 0 -96.3689 -6.61706 0.464156 2.60672 -22.5357 18.1973 0zm15.039 19.2066l0 37.7728 4.81253 -0.624146c0.653167,-0.0846457 0.952497,-0.880316 0.952497,-2.36878l0 -32.8111c0,-1.48865 -0.301562,-2.22293 -0.952497,-2.19279l-4.81253 0.223986zm15.4904 43.5669c0,2.33678 -0.356256,4.52771 -1.103,6.57818 -0.756975,2.07875 -1.85477,3.2331 -3.30863,3.45727l5.16358 32.8271 -10.1765 2.38478 -4.76249 -33.6434 -1.30336 0.272169 0 34.8919 -9.87565 3.00892 0 -112.55 18.6985 0c2.30608,0 4.01072,1.26448 5.0633,3.74543 1.05258,2.48059 1.60418,5.81005 1.60418,9.98727l0 49.0408zm13.1843 27.1932l-0.902454 12.9484 -9.92569 2.33678 8.92315 -105.252 10.5273 0 8.92315 99.49 -9.92569 1.64845 -0.902454 -12.4042 -6.71734 1.23248zm1.10281 -16.4696l4.56175 -0.704141 -2.25586 -35.8202 -2.3059 36.5244zm26.3685 24.3443c-2.85749,0.480155 -4.88248,-0.341932 -6.01562,-2.52877 -1.12253,-2.16656 -1.65441,-6.01803 -1.65441,-11.4919l0 -71.6404c0,-3.92142 0.551593,-6.93053 1.65441,-9.02714 1.10263,-2.09661 2.4564,-3.1531 4.11062,-3.1531l12.9837 0 1.70445 17.8941 -9.47456 0.240171c-0.60145,0.0150688 -0.852225,0.65633 -0.852225,1.90462l0 57.3796c0,1.26429 0.250961,1.84472 0.852225,1.77663l9.47456 -1.07249 -1.80472 18.0383 -10.9785 1.68045zm35.5925 -97.8414l2.4564 17.43 -6.61725 0.112179 0 76.602 -10.026 0.992309 0 -77.4023 -6.61725 0.127992 2.60672 -17.8621 18.1973 0zm23.1101 81.1157l-0.902454 11.5079 -9.87565 0.336165 8.87311 -92.9598 10.5273 0 8.92334 92.2075 -9.92588 0.143991 -0.902454 -11.4279 -6.71734 0.192174zm1.10281 -14.709l4.56194 -0.111993 -2.25586 -32.7313 -2.30608 32.8433zm28.9252 -50.1771l0 60.1805 4.66203 0.127992c0.401277,0.01079 0.649633,-0.128922 0.752138,-0.432158 0.0976682,-0.288912 0.150316,-0.784322 0.150316,-1.45646l0 -56.5953c0,-1.18448 -0.250775,-1.78854 -0.852225,-1.79263l-4.71226 -0.031998zm15.3901 62.5333c0,5.13772 -0.578568,8.81488 -1.70445,10.9958 -1.12997,2.18851 -3.15831,3.21338 -5.96557,3.12092l-17.4954 -0.576149 0 -92.3035 19.3002 0c1.95504,0 3.42639,1.03231 4.41144,3.1051 0.969798,2.04061 1.45386,4.78593 1.45386,8.21082l0 67.447zm21.0547 -78.763l9.97592 0 -9.07365 95.2486 -10.2766 -1.02449 -9.12388 -94.2241 10.0261 0 0.852225 12.1162 3.35867 49.0568 3.35885 -49.2329 0.902268 -11.9401zm12.7331 0l19.1498 0 1.70445 18.6144 -10.7281 -0.320166 0 23.272 8.12115 0.576149 0 17.1418 -8.12115 -0.800135 0 21.3832 10.327 1.39247 -1.70445 18.3103 -18.7488 -3.1051 0 -96.4649zm34.0886 17.9261l0 35.2761 4.81253 0.592148c0.651679,0.0799949 0.952497,-0.592148 0.952497,-2.01662l0 -31.4666c0,-1.42447 -0.301376,-2.1487 -0.952497,-2.17679l-4.81253 -0.208173zm15.4904 44.9274c0,2.33678 -0.351047,4.41758 -1.103,6.24221 -0.751952,1.82463 -1.85477,2.62476 -3.30863,2.38478l5.16358 34.6357 -10.1765 -2.40078 -4.76249 -33.8034 -1.30336 -0.208173 0 32.5871 -9.8256 -1.79263 0 -100.498 18.6485 0c2.30608,0 3.99249,1.25629 5.0633,3.72944 1.08458,2.50458 1.60418,5.84204 1.60418,10.0193l0 49.1048zm23.5111 -62.8535l2.4564 21.0472 -6.56702 -0.384161 0 90.2389 -10.0762 -2.78494 0 -87.9661 -6.61725 -0.287982 2.60672 -19.8629 18.1973 0zm5.16339 0l9.87565 0 0 116.728 -9.87565 -3.00892 0 -113.719zm16.3926 118.729l-1.75449 -22.5357 10.5774 3.1531c0.802367,0.239054 1.15304,-0.49634 1.15304,-2.17679l0 -22.3117c0,-1.68045 -0.117202,-2.70904 -0.401091,-3.1211 -0.267704,-0.388626 -0.748417,-0.688514 -1.40363,-0.832133l-5.11316 -1.12049c-0.699676,-0.153293 -1.40382,-0.432158 -2.0555,-0.848318 -0.651679,-0.415973 -1.27341,-1.15825 -1.80454,-2.2406 -0.521641,-1.06263 -0.90264,-2.49696 -1.20327,-4.28959 -0.300632,-1.79244 -0.451134,-4.14541 -0.451134,-7.07434l0 -40.0136c0,-4.67356 0.551407,-8.37081 1.60418,-11.1398 1.05277,-2.76894 2.75722,-4.17759 5.06312,-4.17759l13.5854 0 1.70445 23.4962 -11.129 -0.784322c-0.801251,-0.0565545 -1.25313,0.800507 -1.25313,2.59295l0 22.1035c0,1.23211 0.147153,2.08247 0.400905,2.57677 0.247426,0.48183 0.60145,0.753812 1.103,0.832319l6.21616 0.97631c1.55581,0.244263 2.75424,1.39377 3.60926,3.44127 0.849248,2.03373 1.25332,5.45788 1.25332,10.2114l0 41.5821c0,6.96216 -0.545453,11.7029 -1.65422,14.1969 -1.09686,2.46738 -3.05897,3.15515 -5.8653,2.0968l-12.1817 -4.59357zm23.8119 -118.729l9.8256 0 0 131.613 -9.8256 -3.90542 0 -127.708zm13.9362 0l9.37447 0 5.01307 56.2113 0 -56.2113 10.1262 0 0 144.673 -10.1262 -4.67356 -5.31389 -59.8924 0 57.4916 -9.07365 -4.11341 0 -133.486zm28.5744 17.8301c0,-5.3937 0.485178,-9.70431 1.45386,-12.9164 0.986169,-3.26993 2.45621,-4.91373 4.41144,-4.91373l14.0865 0 1.65441 29.4982 -10.7781 -1.07249c-0.600334,-0.0597171 -0.902268,0.896501 -0.902268,2.84893l0 90.2229c0,1.93643 0.296539,3.05041 0.902268,3.31309l4.46167 1.93662 0 -61.1248 9.62506 2.16079 0 92.2713 -17.2448 -9.15495c-2.80652,-1.48995 -4.82778,-4.31749 -5.96557,-8.45099 -1.11788,-4.06114 -1.70445,-10.1954 -1.70445,-18.2943l0 -106.324z"/>
  <path class="fil0" d="M157.145 129.275c0,-0.615216 -0.0165571,-1.33703 -0.0492992,-2.16563 -0.0327421,-0.820413 -0.139526,-1.68994 -0.311794,-2.59239 -0.180454,-0.910453 -0.483876,-1.79654 -0.902268,-2.66606 -0.426577,-0.86134 -1.03361,-1.64882 -1.82128,-2.35445 -0.779299,-0.705443 -1.79654,-1.27136 -3.04334,-1.68975 -1.24699,-0.418392 -2.78103,-0.631774 -4.60212,-0.639959 -3.63419,0.00818552 -6.34955,0.844969 -8.14608,2.51035 -1.78835,1.65701 -2.68262,4.06876 -2.68262,7.23544 0,0.992495 0.155897,1.9688 0.459505,2.93674 0.303422,0.967938 0.746557,1.87858 1.31247,2.72355 0.705629,0.918825 1.5013,1.74742 2.37901,2.49379 0.877897,0.746557 1.79654,1.44381 2.76466,2.09196 0.967938,0.65633 1.93588,1.2961 2.91219,1.93606 0.976124,0.631587 1.91951,1.2961 2.82196,1.99336 0.894268,0.607031 1.57516,1.30429 2.04266,2.08359 0.475877,0.787671 0.713629,1.71468 0.713629,2.78922 0.00818552,1.41107 -0.344536,2.47742 -1.04998,3.21579 -0.705443,0.738371 -1.78017,1.10746 -3.23217,1.11565 -1.12384,-0.00818552 -2.00973,-0.278866 -2.66606,-0.812041 -0.648145,-0.525176 -1.10746,-1.25518 -1.36177,-2.18219 -0.262495,-0.935196 -0.360907,-2.00173 -0.303608,-3.20761l0 -2.16563 -6.89091 0 0 2.70718c-0.00818552,1.65701 0.188825,3.1665 0.59066,4.53645 0.402021,1.36996 1.04179,2.55128 1.91969,3.54396 0.877711,1.00068 2.03447,1.77179 3.4701,2.31334 1.43544,0.549546 3.18287,0.820227 5.2419,0.828412 1.68994,0 3.23217,-0.229567 4.6185,-0.680887 1.3947,-0.451134 2.59239,-1.12384 3.59326,-2.01792 1.00887,-0.886083 1.78835,-2.00173 2.32971,-3.32239 0.549546,-1.32903 0.820413,-2.86307 0.828598,-4.61031 0.00818552,-1.05835 -0.0902268,-2.02629 -0.279052,-2.91237 -0.188639,-0.877711 -0.516804,-1.71449 -0.967938,-2.49379 -0.451134,-0.787484 -1.07472,-1.5586 -1.85402,-2.32153 -0.492248,-0.475877 -1.09109,-0.984495 -1.79654,-1.53404 -0.713629,-0.549732 -1.46019,-1.09928 -2.25586,-1.6572 -0.795856,-0.557732 -1.56697,-1.08272 -2.32171,-1.57497 -0.754742,-0.500433 -1.41907,-0.92701 -1.99336,-1.28792 -0.730186,-0.45132 -1.39452,-0.902454 -1.98518,-1.35359 -0.59066,-0.459505 -1.05835,-0.992681 -1.41107,-1.6079 -0.352722,-0.615216 -0.533175,-1.38633 -0.541361,-2.30515 0.016371,-1.24699 0.352722,-2.13289 1.02542,-2.66606 0.672701,-0.533361 1.59134,-0.795856 2.76447,-0.779485 0.943381,0.00837156 1.68175,0.197011 2.23967,0.557918 0.549546,0.360907 0.959753,0.853155 1.22225,1.47656 0.262495,0.623588 0.426577,1.32085 0.500433,2.10014 0.0738557,0.771113 0.0984123,1.57497 0.0738557,2.41175l6.64478 0zm13.5848 25.6932l0 -36.9154 -6.89091 0 0 36.9154 6.89091 0zm23.2322 -29.639c0,1.65701 0.0327421,3.35513 0.0984123,5.10256 0.0656702,1.73905 0.147711,3.50285 0.246124,5.27483 0.0984123,1.77198 0.213196,3.54377 0.328165,5.30757 0.114783,1.76379 0.237938,3.47829 0.360907,5.16004l-0.0984123 0c-0.557918,-1.99355 -1.09928,-3.82283 -1.62427,-5.51276 -0.533175,-1.68175 -1.06654,-3.27309 -1.6079,-4.76621 -0.541361,-1.49311 -1.09928,-2.94511 -1.68994,-4.36419l-5.36505 -13.4782 -7.13703 0 0 36.9154 6.89091 0 0 -6.93184c0,-0.984495 -0.016371,-2.04266 -0.0491131,-3.16668 -0.0247426,-1.12384 -0.0656702,-2.28041 -0.114969,-3.48647 -0.0572987,-1.20588 -0.114783,-2.42812 -0.180454,-3.65856 -0.0656702,-1.25518 -0.13934,-2.48579 -0.221381,-3.70804 -0.0820413,-1.23043 -0.172268,-2.41175 -0.262681,-3.56033 -0.0818552,-1.14839 -0.172268,-2.2313 -0.254123,-3.24854l0.0984123 0c0.541361,1.92788 1.06635,3.72441 1.59134,5.39779 0.525176,1.68175 1.05835,3.27328 1.6079,4.79095 0.541547,1.51748 1.11565,3.00241 1.72268,4.45441l5.36505 13.1173 7.18633 0 0 -36.9154 -6.89091 0 0 7.27637zm28.4986 16.4972c-0.0245566,0.483876 -0.0409276,1.08272 -0.0572987,1.78835 -0.00818552,0.705443 -0.0574847,1.44381 -0.147711,2.21493 -0.0820413,0.762928 -0.237938,1.48474 -0.467505,2.16563 -0.221567,0.672701 -0.566103,1.22225 -1.01724,1.64064 -0.45132,0.426577 -1.05017,0.639959 -1.80491,0.65633 -0.935196,-0.00818552 -1.71449,-0.188639 -2.32971,-0.541361 -0.615216,-0.352722 -1.09928,-0.820413 -1.46019,-1.40289 -0.360907,-0.582474 -0.623402,-1.23043 -0.79567,-1.93588 -0.164083,-0.705629 -0.270866,-1.41926 -0.31998,-2.13307 -0.0492992,-0.721814 -0.0738557,-1.38633 -0.0656702,-2.00973l0 -10.2379c-0.00818552,-0.582474 -0.00818552,-1.27155 0,-2.0674 0,-0.787484 0.0656702,-1.59953 0.188639,-2.44449 0.123155,-0.836784 0.352722,-1.61608 0.697258,-2.33808 0.336351,-0.721814 0.836784,-1.31247 1.49311,-1.76361 0.65633,-0.443134 1.51767,-0.680887 2.59221,-0.689258 0.672701,0.00837156 1.22243,0.164083 1.63264,0.475877 0.418206,0.311794 0.738185,0.721814 0.959753,1.23043 0.229753,0.508619 0.393649,1.06654 0.492248,1.67357 0.0984123,0.607031 0.172268,1.20588 0.213196,1.79654 0.0492992,0.598845 0.0984123,1.13202 0.147711,1.61608l6.7925 0c0.0245566,-0.467505 0.016371,-0.935196 -0.0165571,-1.4027 -0.0327421,-0.467691 -0.0820413,-0.935196 -0.131154,-1.40289 -0.254309,-3.15012 -1.22225,-5.51276 -2.92037,-7.1041 -1.69812,-1.58334 -4.08532,-2.39538 -7.16996,-2.44468 -2.19019,0.00818552 -4.01146,0.27068 -5.45528,0.804042 -1.452,0.52499 -2.60858,1.27973 -3.46992,2.25586 -0.861526,0.976124 -1.5013,2.14107 -1.93606,3.50285 -0.434763,1.35359 -0.730186,2.85489 -0.886083,4.5119 -0.163896,1.6572 -0.262495,3.42899 -0.311608,5.31594l0 5.26645c-0.016371,1.97718 0.0409276,3.82283 0.164083,5.55388 0.131154,1.72268 0.401835,3.28946 0.820227,4.69235 0.418392,1.4027 1.06654,2.61676 1.93606,3.62581 0.877711,1.00905 2.05085,1.78835 3.53577,2.3299 1.48474,0.549546 3.35513,0.820227 5.6028,0.828412 1.91151,-0.00818552 3.51122,-0.311608 4.79913,-0.910453 1.28792,-0.598845 2.32153,-1.44381 3.09264,-2.51854 0.779299,-1.07454 1.35359,-2.3379 1.72268,-3.77353 0.369279,-1.44381 0.598845,-3.01078 0.672701,-4.70872 0.0245566,-0.344722 0.0492992,-0.697444 0.0738557,-1.05835 0.0245566,-0.360907 0.0492992,-0.713629 0.0738557,-1.05816l-6.94021 0zm31.649 13.1419l0 -5.41435 -12.5021 0 0 -11.3699 11.5176 0 0 -5.41435 -11.5176 0 0 -9.30266 12.5021 0 0 -5.41417 -19.393 0 0 36.9154 19.393 0zm36.1277 0l0 -5.41435 -12.8464 0c0.016371,-0.631587 0.147525,-1.2468 0.377278,-1.85383 0.237938,-0.598845 0.541361,-1.18132 0.902454,-1.73105 0.360907,-0.557732 0.746371,-1.06635 1.15658,-1.54223 0.410206,-0.47569 0.795856,-0.902268 1.15676,-1.27155l5.41417 -5.61118c0.951753,-0.959753 1.75561,-1.96062 2.40375,-3.00241 0.647959,-1.03361 1.14021,-2.13289 1.47656,-3.30602 0.336351,-1.16476 0.500433,-2.42812 0.500433,-3.78171 -0.00818552,-1.48493 -0.246124,-2.80559 -0.730186,-3.97872 -0.47569,-1.17313 -1.15658,-2.16563 -2.03447,-2.99423 -0.885897,-0.820413 -1.92769,-1.452 -3.13357,-1.89495 -1.20606,-0.434763 -2.53491,-0.664516 -3.99509,-0.680887 -1.76379,-0.00818552 -3.24854,0.188639 -4.47097,0.582474 -1.21406,0.401835 -2.20674,0.935196 -2.96967,1.60771 -0.771113,0.680887 -1.36177,1.43563 -1.78835,2.26423 -0.418392,0.828598 -0.721814,1.67357 -0.902268,2.53491 -0.172268,0.86134 -0.279052,1.68175 -0.311794,2.44468 -0.0327421,0.771113 -0.0492992,1.43544 -0.0409276,1.98518l0 1.03361 6.44777 0c0.00818552,-0.574289 0.00818552,-1.16495 0.00818552,-1.75561 0,-0.598845 0.0329281,-1.18951 0.0985983,-1.77179 0.0654842,-0.582474 0.213196,-1.14858 0.434763,-1.68994 0.262495,-0.680887 0.672701,-1.15676 1.2468,-1.42744 0.574289,-0.27068 1.22243,-0.402021 1.95243,-0.393835 0.664516,-0.00818552 1.2388,0.123155 1.73105,0.393835 0.492062,0.262495 0.877711,0.721814 1.14839,1.36177 0.278866,0.639773 0.418392,1.51767 0.418392,2.62513 0,0.86134 -0.0738557,1.6079 -0.221567,2.23948 -0.13934,0.631774 -0.360907,1.19769 -0.647959,1.70631 -0.287237,0.508619 -0.639959,1.00905 -1.05835,1.50948 -0.426577,0.492248 -0.910453,1.04179 -1.46837,1.63245l-3.34695 3.54396c-1.40289,1.49293 -2.55946,2.86289 -3.4701,4.11806 -0.902454,1.24699 -1.59971,2.39538 -2.08359,3.42899 -0.484062,1.04179 -0.804042,1.98536 -0.943568,2.83852 -0.114783,0.713629 -0.213196,1.452 -0.295237,2.21493 -0.0820413,0.754556 -0.147711,1.48474 -0.196825,2.182 -0.0492992,0.705629 -0.0820413,1.32085 -0.0985983,1.85402l20.1805 0zm12.1084 -26.4807c-0.0574847,-1.35359 0.0409276,-2.40357 0.295237,-3.15831 0.254309,-0.754742 0.623402,-1.27973 1.09928,-1.58334 0.475877,-0.295237 1.00905,-0.442948 1.6079,-0.426577 0.615216,-0.016371 1.17313,0.13134 1.67357,0.426577 0.492062,0.303608 0.877711,0.828598 1.15658,1.58334 0.27068,0.754742 0.377464,1.80472 0.31998,3.15831l0 16.5874c0.0574847,1.36996 -0.0492992,2.42812 -0.31998,3.19105 -0.278866,0.762928 -0.664516,1.28792 -1.15658,1.59153 -0.500433,0.303608 -1.05835,0.451134 -1.67357,0.434763 -0.598845,0.016371 -1.13202,-0.131154 -1.6079,-0.434763 -0.475877,-0.303608 -0.844969,-0.828598 -1.09928,-1.59153 -0.254309,-0.762928 -0.352722,-1.82109 -0.295237,-3.19105l0 -16.5874zm-6.89091 16.5874c0,1.95243 0.229567,3.60126 0.680887,4.96303 0.451134,1.35359 1.10746,2.45287 1.9688,3.28965 0.853155,0.828412 1.89495,1.43563 3.12557,1.82109 1.22225,0.377464 2.61676,0.566103 4.16718,0.557918 1.56697,0.00818552 2.96967,-0.180454 4.20029,-0.557918 1.23043,-0.385464 2.2806,-0.992681 3.14194,-1.82109 0.86134,-0.836784 1.51767,-1.93606 1.9688,-3.28965 0.451134,-1.36177 0.680887,-3.0106 0.680887,-4.96303l0 -16.5874c0,-1.95243 -0.229753,-3.60126 -0.680887,-4.95485 -0.451134,-1.35359 -1.10746,-2.44468 -1.96062,-3.27328 -0.86134,-0.828412 -1.90332,-1.42726 -3.13375,-1.80472 -1.22225,-0.369093 -2.61695,-0.557732 -4.16736,-0.549546 -1.56678,-0.00818552 -2.96148,0.180454 -4.2001,0.549546 -1.23062,0.377464 -2.2806,0.97631 -3.14194,1.80472 -0.86134,0.828598 -1.51767,1.91969 -1.9688,3.27328 -0.45132,1.35359 -0.680887,3.00241 -0.680887,4.95485l0 16.5874zm31.5012 -16.5874c-0.0574847,-1.35359 0.0409276,-2.40357 0.295237,-3.15831 0.254309,-0.754742 0.623402,-1.27973 1.09928,-1.58334 0.475877,-0.295237 1.00905,-0.442948 1.6079,-0.426577 0.615216,-0.016371 1.17313,0.13134 1.67357,0.426577 0.492062,0.303608 0.877711,0.828598 1.15658,1.58334 0.27068,0.754742 0.377464,1.80472 0.31998,3.15831l0 16.5874c0.0574847,1.36996 -0.0492992,2.42812 -0.31998,3.19105 -0.278866,0.762928 -0.664516,1.28792 -1.15658,1.59153 -0.500433,0.303608 -1.05835,0.451134 -1.67357,0.434763 -0.598845,0.016371 -1.13202,-0.131154 -1.6079,-0.434763 -0.475877,-0.303608 -0.844969,-0.828598 -1.09928,-1.59153 -0.254309,-0.762928 -0.352722,-1.82109 -0.295237,-3.19105l0 -16.5874zm-6.89091 16.5874c0,1.95243 0.229567,3.60126 0.680887,4.96303 0.451134,1.35359 1.10746,2.45287 1.9688,3.28965 0.853155,0.828412 1.89495,1.43563 3.12557,1.82109 1.22225,0.377464 2.61676,0.566103 4.16718,0.557918 1.56697,0.00818552 2.96967,-0.180454 4.20029,-0.557918 1.23043,-0.385464 2.2806,-0.992681 3.14194,-1.82109 0.86134,-0.836784 1.51767,-1.93606 1.9688,-3.28965 0.451134,-1.36177 0.680887,-3.0106 0.680887,-4.96303l0 -16.5874c0,-1.95243 -0.229753,-3.60126 -0.680887,-4.95485 -0.451134,-1.35359 -1.10746,-2.44468 -1.96062,-3.27328 -0.86134,-0.828412 -1.90332,-1.42726 -3.13375,-1.80472 -1.22225,-0.369093 -2.61695,-0.557732 -4.16736,-0.549546 -1.56678,-0.00818552 -2.96148,0.180454 -4.2001,0.549546 -1.23062,0.377464 -2.2806,0.97631 -3.14194,1.80472 -0.86134,0.828598 -1.51767,1.91969 -1.9688,3.27328 -0.45132,1.35359 -0.680887,3.00241 -0.680887,4.95485l0 16.5874zm28.4495 -3.00241l6.7925 -14.9631 0.0984123 0 0 14.9631 -6.89091 0zm6.10324 -23.4292l-11.1731 23.4292 0 5.41417 11.9607 0 0 7.48157 6.89091 0 0 -7.48157 3.15012 0 0 -5.41417 -3.15012 0 0 -23.4292 -7.67858 0z"/>
 </g>
</svg>
