<?xml version="1.0" encoding="UTF-8" standalone="no"?>
<!-- Creator: CorelDRAW -->
<svg id="svg2" xmlns:rdf="http://www.w3.org/1999/02/22-rdf-syntax-ns#" xmlns="http://www.w3.org/2000/svg" fill-rule="evenodd" xml:space="preserve" height="200" width="300" version="1.1" xmlns:cc="http://creativecommons.org/ns#" xmlns:dc="http://purl.org/dc/elements/1.1/" viewBox="0 0 300 133.792"><metadata id="metadata37"><rdf:RDF><cc:Work rdf:about=""><dc:format>image/svg+xml</dc:format><dc:type rdf:resource="http://purl.org/dc/dcmitype/StillImage"/><dc:title/></cc:Work></rdf:RDF></metadata>
 <defs id="defs4">
  <style id="style6" type="text/css">
    .str0 {stroke:salmon;stroke-width:2.06909}
    .fil1 {fill:#1F1A17}
    .fil6 {fill:#C2C1C1}
    .fil3 {fill:#4C4C4C}
    .fil4 {fill:#CCCCCC}
    .fil2 {fill:#F7F7F7}
    .fil0 {fill:salmon}
    .fil5 {fill:white;fill-opacity:0.258824}
    .fil7 {fill:#1F1A17;fill-opacity:0.431373}
  </style>
 </defs>
 <g id="Layer_x0020_1" transform="translate(2.6583672e-5,-33.447871)">
  <rect id="rect10" class="fil0 str0" height="198.62" width="297.93" stroke="#fa8072" y="1.0334" x="1.034" stroke-width="2.0691" fill="#fa8072"/>
  <g id="_67202208" fill="#1f1a17">
   <rect id="_66918048" ry="0.81286" class="fil1" rx="0.81286" transform="matrix(0.939693,0.34202,0.34202,-0.939693,126.776,49.1556)" height="11.38" width="1.6257" y="0" x="0"/>
   <rect id="_66929512" ry="0.81286" class="fil1" rx="0.81286" transform="matrix(-0.939693,0.34202,-0.34202,-0.939693,66.5352,49.1556)" height="11.38" width="1.6257" y="0" x="0"/>
  </g>
  <g id="_66533408" fill="#1f1a17">
   <rect id="_66733728" ry="0.81286" class="fil1" rx="0.81286" transform="matrix(-0.939693,-0.34202,-0.34202,0.939693,66.629,169.623)" height="11.38" width="1.6257" y="0" x="0"/>
   <rect id="_66483672" ry="0.81286" class="fil1" rx="0.81286" transform="matrix(0.939693,-0.34202,0.34202,0.939693,126.87,169.623)" height="11.38" width="1.6257" y="0" x="0"/>
  </g>
  <rect id="rect18" class="fil2" height="131.76" width="66.852" y="43.918" x="63.231" fill="#f7f7f7"/>
  <rect id="rect20" y="0" transform="matrix(0.939693,-0.34202,0.34202,0.939693,188.51,98.8809)" rx="0.81286" ry="0.81286" height="11.38" width="1.6257" x="0" class="fil1" fill="#1f1a17"/>
  <rect id="rect22" class="fil3" height="1.4533" width="11.626" y="178.63" x="163.1" fill="#4c4c4c"/>
  <rect id="rect24" class="fil3" height="1.4533" width="11.626" y="178.63" x="204.63" fill="#4c4c4c"/>
  <rect id="rect26" class="fil2" height="143.39" width="74.306" y="29.58" x="152.29" fill="#f7f7f7"/>
  <g id="_66909744">
   <rect id="_63235192" class="fil4" rx="0.84336" ry="0.84336" height="8.2353" width="81.316" y="170.55" x="148.78" fill="#CCC"/>
   <path id="_67195408" d="m149.6,170.55,79.688,0c0.44924,0,0.81403,0.37886,0.81403,0.84336v4.157h-81.316v-4.157c0-0.4645,0.36596-0.84336,0.81403-0.84336z" fill-opacity="0.25882401" class="fil5" fill="#FFF"/>
  </g>
  <rect id="rect31" rx="0.84336" ry="0.84336" height="2.0597" width="81.316" y="29.581" x="148.78" class="fil6" fill="#c2c1c1"/>
  <path id="path33" d="m150,179.35c67.364,0,121.99,0.24984,121.99,0.55833,0,0.30848-54.63,0.55832-121.99,0.55832-67.364,0-121.99-0.24984-121.99-0.55832,0-0.30849,54.63-0.55833,121.99-0.55833z" fill-opacity="0.43137303" class="fil7" fill="#1f1a17"/>
 </g>
</svg>
