<?xml version="1.0" encoding="UTF-8" standalone="no"?>
<!-- Created with Inkscape (http://www.inkscape.org/) -->

<svg
   xmlns:dc="http://purl.org/dc/elements/1.1/"
   xmlns:cc="http://creativecommons.org/ns#"
   xmlns:rdf="http://www.w3.org/1999/02/22-rdf-syntax-ns#"
   xmlns:svg="http://www.w3.org/2000/svg"
   xmlns="http://www.w3.org/2000/svg"
   xmlns:sodipodi="http://sodipodi.sourceforge.net/DTD/sodipodi-0.dtd"
   xmlns:inkscape="http://www.inkscape.org/namespaces/inkscape"
   width="1070.1575"
   height="397.49707"
   id="svg2"
   version="1.1"
   inkscape:version="0.48.2 r9819"
   sodipodi:docname="bg.svg">
  <defs
     id="defs4" />
  <sodipodi:namedview
     id="base"
     pagecolor="#ffffff"
     bordercolor="#666666"
     borderopacity="1.0"
     inkscape:pageopacity="0.0"
     inkscape:pageshadow="2"
     inkscape:zoom="0.73072917"
     inkscape:cx="789.16997"
     inkscape:cy="99.091254"
     inkscape:document-units="px"
     inkscape:current-layer="layer1"
     showgrid="false"
     showguides="false"
     inkscape:guide-bbox="true"
     inkscape:window-width="1920"
     inkscape:window-height="1005"
     inkscape:window-x="0"
     inkscape:window-y="22"
     inkscape:window-maximized="1"
     guidetolerance="5"
     objecttolerance="5"
     fit-margin-top="0"
     fit-margin-left="0"
     fit-margin-right="0"
     fit-margin-bottom="0">
    <sodipodi:guide
       orientation="1,0"
       position="669.39843,397.93901"
       id="guide2996" />
    <sodipodi:guide
       orientation="1,0"
       position="1522.4488,317.72681"
       id="guide2998" />
    <sodipodi:guide
       orientation="0,1"
       position="827.27642,460.32628"
       id="guide3031" />
  </sodipodi:namedview>
  <metadata
     id="metadata7">
    <rdf:RDF>
      <cc:Work
         rdf:about="">
        <dc:format>image/svg+xml</dc:format>
        <dc:type
           rdf:resource="http://purl.org/dc/dcmitype/StillImage" />
        <dc:title></dc:title>
      </cc:Work>
    </rdf:RDF>
  </metadata>
  <g
     inkscape:label="Layer 1"
     inkscape:groupmode="layer"
     id="layer1"
     transform="translate(135.92363,-660.65557)">
    <g
       id="g4042"
       transform="translate(-537.81896,24.632929)">
      <rect
         y="954.67133"
         x="645.69775"
         height="38.612347"
         width="626.84052"
         id="rect3843"
         style="fill:#c1c1c1;fill-opacity:1;fill-rule:nonzero;stroke:none" />
      <rect
         y="801.68481"
         x="668.69775"
         height="161.51253"
         width="596.60455"
         id="rect3813"
         style="fill:#d05454;fill-opacity:1;fill-rule:nonzero;stroke:none" />
      <rect
         style="opacity:0.13551402;fill:#000000;fill-opacity:1;fill-rule:nonzero;stroke:none"
         id="rect3913"
         width="4.7897363"
         height="41.739128"
         x="873.10046"
         y="920.98657" />
      <rect
         transform="translate(0,318.36218)"
         y="445.24731"
         x="677.40558"
         height="41.739132"
         width="565.87311"
         id="rect3911"
         style="fill:#e74c4c;fill-opacity:1;fill-rule:nonzero;stroke:none" />
      <rect
         style="fill:#808080;fill-opacity:1;fill-rule:nonzero;stroke:none"
         id="rect3909"
         width="4.7897363"
         height="41.739128"
         x="847.78333"
         y="920.98657" />
      <rect
         transform="translate(0,318.36218)"
         y="600.57166"
         x="821.78192"
         height="3.4212401"
         width="150.53458"
         id="rect3903"
         style="fill:#8b4513;fill-opacity:1;fill-rule:nonzero;stroke:none" />
      <rect
         style="fill:#d3d3d3;fill-opacity:1;fill-rule:nonzero;stroke:none"
         id="rect3821"
         width="215.07863"
         height="83.8442"
         x="784.10944"
         y="832.87427" />
      <rect
         y="839.25372"
         x="897.11688"
         height="71.085304"
         width="93.869041"
         id="rect3825"
         style="fill:#f5f5f5;fill-opacity:1;fill-rule:nonzero;stroke:none" />
      <rect
         y="663.36316"
         x="662.69775"
         height="122.79045"
         width="592.60455"
         id="rect3807"
         style="fill:#393939;fill-opacity:1;fill-rule:nonzero;stroke:none" />
      <path
         style="opacity:0.19158882;fill:#000000;fill-opacity:1;stroke:none"
         d="m 983.96176,662.34079 36.64544,0.65647 181.6166,134.82465 -218.95936,2.05275 z"
         id="path3873"
         inkscape:connector-curvature="0"
         sodipodi:nodetypes="ccccc" />
      <path
         sodipodi:nodetypes="ccccc"
         inkscape:connector-curvature="0"
         id="path3871"
         d="m 684.24804,663.70929 35.95836,0.65647 178.21128,134.82465 -214.85388,2.05275 z"
         style="opacity:0.19158882;fill:#000000;fill-opacity:1;stroke:none" />
      <rect
         y="636.02264"
         x="654.69775"
         height="346.31302"
         width="32.210529"
         id="rect3033"
         style="fill:#ff6161;fill-opacity:1;fill-rule:nonzero;stroke:none" />
      <rect
         style="fill:#ff6161;fill-opacity:1;fill-rule:nonzero;stroke:none"
         id="rect3803"
         width="32.210529"
         height="346.31305"
         x="1233.0917"
         y="636.02264" />
      <rect
         y="636.02264"
         x="956.04126"
         height="346.31302"
         width="32.210529"
         id="rect3805"
         style="fill:#ff6161;fill-opacity:1;fill-rule:nonzero;stroke:none" />
      <rect
         y="832.87427"
         x="693.8858"
         height="130.32306"
         width="80.198807"
         id="rect3815"
         style="fill:#d3d3d3;fill-opacity:1;fill-rule:nonzero;stroke:none" />
      <rect
         y="837.43103"
         x="700.2652"
         height="125.7663"
         width="67.439903"
         id="rect3819"
         style="fill:#5b5b5b;fill-opacity:1;fill-rule:nonzero;stroke:none" />
      <rect
         style="fill:#f5f5f5;fill-opacity:1;fill-rule:nonzero;stroke:none"
         id="rect3823"
         width="96.603111"
         height="71.085304"
         x="789.57751"
         y="839.25372" />
      <rect
         y="832.87427"
         x="1010.1242"
         height="130.32306"
         width="112.09606"
         id="rect3829"
         style="fill:#393939;fill-opacity:1;fill-rule:nonzero;stroke:none" />
      <rect
         y="838.34235"
         x="1014.681"
         height="120.29824"
         width="48.301556"
         id="rect3831"
         style="fill:#d3d3d3;fill-opacity:1;fill-rule:nonzero;stroke:none" />
      <rect
         style="fill:#d3d3d3;fill-opacity:1;fill-rule:nonzero;stroke:none"
         id="rect3835"
         width="48.301556"
         height="120.29824"
         x="1069.3621"
         y="838.34235" />
      <rect
         style="fill:#c0c0c0;fill-opacity:1;fill-rule:nonzero;stroke:none"
         id="rect3837"
         width="48.301556"
         height="74.730743"
         x="1014.681"
         y="883.90985" />
      <rect
         y="883.90985"
         x="1069.3621"
         height="74.730743"
         width="48.301556"
         id="rect3841"
         style="fill:#c0c0c0;fill-opacity:1;fill-rule:nonzero;stroke:none" />
      <rect
         y="992.20081"
         x="644.11963"
         height="4.556736"
         width="628.98798"
         id="rect3845"
         style="fill:#948b8b;fill-opacity:1;fill-rule:nonzero;stroke:none" />
      <rect
         transform="translate(0,318.36218)"
         y="603.99286"
         x="832.04559"
         height="49.265858"
         width="4.7897363"
         id="rect3907"
         style="fill:#808080;fill-opacity:1;fill-rule:nonzero;stroke:none" />
      <rect
         y="799.1543"
         x="673.83612"
         height="20.961037"
         width="572.32788"
         id="rect3811"
         style="fill:#e8e59c;fill-opacity:1;fill-rule:nonzero;stroke:none" />
    </g>
    <g
       id="g3969"
       transform="translate(-688.89843,-269.57805)">
      <path
         transform="matrix(0.95,0,0,1.0547946,344.3748,595.41698)"
         d="m 368,546.5 c 0,20.15839 -22.38576,36.5 -50,36.5 -27.61424,0 -50,-16.34161 -50,-36.5 0,-20.15839 22.38576,-36.5 50,-36.5 27.61424,0 50,16.34161 50,36.5 z"
         sodipodi:ry="36.5"
         sodipodi:rx="50"
         sodipodi:cy="546.5"
         sodipodi:cx="318"
         id="path3967"
         style="fill:#a6a25a;fill-opacity:1;fill-rule:nonzero;stroke:none"
         sodipodi:type="arc" />
      <path
         sodipodi:type="arc"
         style="fill:#a6a25a;fill-opacity:1;fill-rule:nonzero;stroke:none"
         id="path3963"
         sodipodi:cx="318"
         sodipodi:cy="546.5"
         sodipodi:rx="50"
         sodipodi:ry="36.5"
         d="m 368,546.5 c 0,20.15839 -22.38576,36.5 -50,36.5 -27.61424,0 -50,-16.34161 -50,-36.5 0,-20.15839 22.38576,-36.5 50,-36.5 27.61424,0 50,16.34161 50,36.5 z"
         transform="matrix(0.95,0,0,1.0547946,426.3748,586.41698)" />
      <path
         inkscape:connector-curvature="0"
         id="path3933"
         d="m 635.9748,1196.3622 39,75 -22,53 35,0 5,-53 33,-88 -36,67 -16,-45 -9,17 8,22 z"
         style="fill:#76bd76;fill-opacity:1;stroke:none" />
      <path
         transform="matrix(0.64,0,0,0.80821921,391.4548,715.1704)"
         d="m 368,546.5 c 0,20.15839 -22.38576,36.5 -50,36.5 -27.61424,0 -50,-16.34161 -50,-36.5 0,-20.15839 22.38576,-36.5 50,-36.5 27.61424,0 50,16.34161 50,36.5 z"
         sodipodi:ry="36.5"
         sodipodi:rx="50"
         sodipodi:cy="546.5"
         sodipodi:cx="318"
         id="path3917"
         style="fill:#bdb76b;fill-opacity:1;fill-rule:nonzero;stroke:none"
         sodipodi:type="arc" />
      <path
         sodipodi:type="arc"
         style="fill:#bdb76b;fill-opacity:1;fill-rule:nonzero;stroke:none"
         id="path3919"
         sodipodi:cx="318"
         sodipodi:cy="546.5"
         sodipodi:rx="50"
         sodipodi:ry="36.5"
         d="m 368,546.5 c 0,20.15839 -22.38576,36.5 -50,36.5 -27.61424,0 -50,-16.34161 -50,-36.5 0,-20.15839 22.38576,-36.5 50,-36.5 27.61424,0 50,16.34161 50,36.5 z"
         transform="matrix(1,0,0,1.260274,315.9748,452.62245)" />
      <path
         sodipodi:type="arc"
         style="fill:#bdb76b;fill-opacity:1;fill-rule:nonzero;stroke:none"
         id="path3921"
         sodipodi:cx="318"
         sodipodi:cy="546.5"
         sodipodi:rx="50"
         sodipodi:ry="36.5"
         d="m 368,546.5 c 0,20.15839 -22.38576,36.5 -50,36.5 -27.61424,0 -50,-16.34161 -50,-36.5 0,-20.15839 22.38576,-36.5 50,-36.5 27.61424,0 50,16.34161 50,36.5 z"
         transform="matrix(0.64,0,0,0.80821921,381.4548,754.1704)" />
      <path
         transform="matrix(0.95,0,0,1.0547946,371.3748,581.41698)"
         d="m 368,546.5 c 0,20.15839 -22.38576,36.5 -50,36.5 -27.61424,0 -50,-16.34161 -50,-36.5 0,-20.15839 22.38576,-36.5 50,-36.5 27.61424,0 50,16.34161 50,36.5 z"
         sodipodi:ry="36.5"
         sodipodi:rx="50"
         sodipodi:cy="546.5"
         sodipodi:cx="318"
         id="path3923"
         style="fill:#bdb76b;fill-opacity:1;fill-rule:nonzero;stroke:none"
         sodipodi:type="arc" />
      <path
         sodipodi:type="arc"
         style="fill:#bdb76b;fill-opacity:1;fill-rule:nonzero;stroke:none"
         id="path3925"
         sodipodi:cx="318"
         sodipodi:cy="546.5"
         sodipodi:rx="50"
         sodipodi:ry="36.5"
         d="m 368,546.5 c 0,20.15839 -22.38576,36.5 -50,36.5 -27.61424,0 -50,-16.34161 -50,-36.5 0,-20.15839 22.38576,-36.5 50,-36.5 27.61424,0 50,16.34161 50,36.5 z"
         transform="matrix(0.95,0,0,1.0547946,381.3748,534.41698)" />
      <path
         transform="matrix(0.69,0,0,0.86301378,485.0548,697.2252)"
         d="m 368,546.5 c 0,20.15839 -22.38576,36.5 -50,36.5 -27.61424,0 -50,-16.34161 -50,-36.5 0,-20.15839 22.38576,-36.5 50,-36.5 27.61424,0 50,16.34161 50,36.5 z"
         sodipodi:ry="36.5"
         sodipodi:rx="50"
         sodipodi:cy="546.5"
         sodipodi:cx="318"
         id="path3965"
         style="fill:#a6a25a;fill-opacity:1;fill-rule:nonzero;stroke:none"
         sodipodi:type="arc" />
      <path
         transform="matrix(0.75,0,0,0.80821926,391.9748,778.1704)"
         d="m 368,546.5 c 0,20.15839 -22.38576,36.5 -50,36.5 -27.61424,0 -50,-16.34161 -50,-36.5 0,-20.15839 22.38576,-36.5 50,-36.5 27.61424,0 50,16.34161 50,36.5 z"
         sodipodi:ry="36.5"
         sodipodi:rx="50"
         sodipodi:cy="546.5"
         sodipodi:cx="318"
         id="path3927"
         style="fill:#bdb76b;fill-opacity:1;fill-rule:nonzero;stroke:none"
         sodipodi:type="arc" />
      <path
         inkscape:connector-curvature="0"
         id="path3958"
         d="m 714.64667,1205.7997 -25.03125,46.5625 -16,-45 -5.1875,9.7812 18.21875,47.2188 -15.8125,62 16.78125,0 5,-53 24.90625,-66.4063 -2.875,-1.1562 z"
         style="opacity:0.08878503;fill:#000000;fill-opacity:1;stroke:none" />
      <path
         sodipodi:type="arc"
         style="fill:#bdb76b;fill-opacity:1;fill-rule:nonzero;stroke:none"
         id="path3929"
         sodipodi:cx="318"
         sodipodi:cy="546.5"
         sodipodi:rx="50"
         sodipodi:ry="36.5"
         d="m 368,546.5 c 0,20.15839 -22.38576,36.5 -50,36.5 -27.61424,0 -50,-16.34161 -50,-36.5 0,-20.15839 22.38576,-36.5 50,-36.5 27.61424,0 50,16.34161 50,36.5 z"
         transform="matrix(0.95,0,0,1.0547946,400.3748,620.41698)" />
      <path
         transform="matrix(0.95,0,0,1.0547946,425.3748,568.41698)"
         d="m 368,546.5 c 0,20.15839 -22.38576,36.5 -50,36.5 -27.61424,0 -50,-16.34161 -50,-36.5 0,-20.15839 22.38576,-36.5 50,-36.5 27.61424,0 50,16.34161 50,36.5 z"
         sodipodi:ry="36.5"
         sodipodi:rx="50"
         sodipodi:cy="546.5"
         sodipodi:cx="318"
         id="path3931"
         style="fill:#bdb76b;fill-opacity:1;fill-rule:nonzero;stroke:none"
         sodipodi:type="arc" />
    </g>
    <g
       transform="translate(158.25909,-268.20955)"
       id="g3984">
      <path
         sodipodi:type="arc"
         style="fill:#a6a25a;fill-opacity:1;fill-rule:nonzero;stroke:none"
         id="path3986"
         sodipodi:cx="318"
         sodipodi:cy="546.5"
         sodipodi:rx="50"
         sodipodi:ry="36.5"
         d="m 368,546.5 c 0,20.15839 -22.38576,36.5 -50,36.5 -27.61424,0 -50,-16.34161 -50,-36.5 0,-20.15839 22.38576,-36.5 50,-36.5 27.61424,0 50,16.34161 50,36.5 z"
         transform="matrix(0.95,0,0,1.0547946,344.3748,595.41698)" />
      <path
         transform="matrix(0.95,0,0,1.0547946,426.3748,586.41698)"
         d="m 368,546.5 c 0,20.15839 -22.38576,36.5 -50,36.5 -27.61424,0 -50,-16.34161 -50,-36.5 0,-20.15839 22.38576,-36.5 50,-36.5 27.61424,0 50,16.34161 50,36.5 z"
         sodipodi:ry="36.5"
         sodipodi:rx="50"
         sodipodi:cy="546.5"
         sodipodi:cx="318"
         id="path3988"
         style="fill:#a6a25a;fill-opacity:1;fill-rule:nonzero;stroke:none"
         sodipodi:type="arc" />
      <path
         style="fill:#76bd76;fill-opacity:1;stroke:none"
         d="m 635.9748,1196.3622 39,75 -22,53 35,0 5,-53 33,-88 -36,67 -16,-45 -9,17 8,22 z"
         id="path3990"
         inkscape:connector-curvature="0" />
      <path
         sodipodi:type="arc"
         style="fill:#bdb76b;fill-opacity:1;fill-rule:nonzero;stroke:none"
         id="path3992"
         sodipodi:cx="318"
         sodipodi:cy="546.5"
         sodipodi:rx="50"
         sodipodi:ry="36.5"
         d="m 368,546.5 c 0,20.15839 -22.38576,36.5 -50,36.5 -27.61424,0 -50,-16.34161 -50,-36.5 0,-20.15839 22.38576,-36.5 50,-36.5 27.61424,0 50,16.34161 50,36.5 z"
         transform="matrix(0.64,0,0,0.80821921,391.4548,715.1704)" />
      <path
         transform="matrix(1,0,0,1.260274,315.9748,452.62245)"
         d="m 368,546.5 c 0,20.15839 -22.38576,36.5 -50,36.5 -27.61424,0 -50,-16.34161 -50,-36.5 0,-20.15839 22.38576,-36.5 50,-36.5 27.61424,0 50,16.34161 50,36.5 z"
         sodipodi:ry="36.5"
         sodipodi:rx="50"
         sodipodi:cy="546.5"
         sodipodi:cx="318"
         id="path3994"
         style="fill:#bdb76b;fill-opacity:1;fill-rule:nonzero;stroke:none"
         sodipodi:type="arc" />
      <path
         transform="matrix(0.64,0,0,0.80821921,381.4548,754.1704)"
         d="m 368,546.5 c 0,20.15839 -22.38576,36.5 -50,36.5 -27.61424,0 -50,-16.34161 -50,-36.5 0,-20.15839 22.38576,-36.5 50,-36.5 27.61424,0 50,16.34161 50,36.5 z"
         sodipodi:ry="36.5"
         sodipodi:rx="50"
         sodipodi:cy="546.5"
         sodipodi:cx="318"
         id="path3996"
         style="fill:#bdb76b;fill-opacity:1;fill-rule:nonzero;stroke:none"
         sodipodi:type="arc" />
      <path
         sodipodi:type="arc"
         style="fill:#bdb76b;fill-opacity:1;fill-rule:nonzero;stroke:none"
         id="path3998"
         sodipodi:cx="318"
         sodipodi:cy="546.5"
         sodipodi:rx="50"
         sodipodi:ry="36.5"
         d="m 368,546.5 c 0,20.15839 -22.38576,36.5 -50,36.5 -27.61424,0 -50,-16.34161 -50,-36.5 0,-20.15839 22.38576,-36.5 50,-36.5 27.61424,0 50,16.34161 50,36.5 z"
         transform="matrix(0.95,0,0,1.0547946,371.3748,581.41698)" />
      <path
         transform="matrix(0.95,0,0,1.0547946,381.3748,534.41698)"
         d="m 368,546.5 c 0,20.15839 -22.38576,36.5 -50,36.5 -27.61424,0 -50,-16.34161 -50,-36.5 0,-20.15839 22.38576,-36.5 50,-36.5 27.61424,0 50,16.34161 50,36.5 z"
         sodipodi:ry="36.5"
         sodipodi:rx="50"
         sodipodi:cy="546.5"
         sodipodi:cx="318"
         id="path4000"
         style="fill:#bdb76b;fill-opacity:1;fill-rule:nonzero;stroke:none"
         sodipodi:type="arc" />
      <path
         sodipodi:type="arc"
         style="fill:#a6a25a;fill-opacity:1;fill-rule:nonzero;stroke:none"
         id="path4002"
         sodipodi:cx="318"
         sodipodi:cy="546.5"
         sodipodi:rx="50"
         sodipodi:ry="36.5"
         d="m 368,546.5 c 0,20.15839 -22.38576,36.5 -50,36.5 -27.61424,0 -50,-16.34161 -50,-36.5 0,-20.15839 22.38576,-36.5 50,-36.5 27.61424,0 50,16.34161 50,36.5 z"
         transform="matrix(0.69,0,0,0.86301378,485.0548,697.2252)" />
      <path
         sodipodi:type="arc"
         style="fill:#bdb76b;fill-opacity:1;fill-rule:nonzero;stroke:none"
         id="path4004"
         sodipodi:cx="318"
         sodipodi:cy="546.5"
         sodipodi:rx="50"
         sodipodi:ry="36.5"
         d="m 368,546.5 c 0,20.15839 -22.38576,36.5 -50,36.5 -27.61424,0 -50,-16.34161 -50,-36.5 0,-20.15839 22.38576,-36.5 50,-36.5 27.61424,0 50,16.34161 50,36.5 z"
         transform="matrix(0.75,0,0,0.80821926,391.9748,778.1704)" />
      <path
         style="opacity:0.08878503;fill:#000000;fill-opacity:1;stroke:none"
         d="m 714.64667,1205.7997 -25.03125,46.5625 -16,-45 -5.1875,9.7812 18.21875,47.2188 -15.8125,62 16.78125,0 5,-53 24.90625,-66.4063 -2.875,-1.1562 z"
         id="path4006"
         inkscape:connector-curvature="0" />
      <path
         transform="matrix(0.95,0,0,1.0547946,400.3748,620.41698)"
         d="m 368,546.5 c 0,20.15839 -22.38576,36.5 -50,36.5 -27.61424,0 -50,-16.34161 -50,-36.5 0,-20.15839 22.38576,-36.5 50,-36.5 27.61424,0 50,16.34161 50,36.5 z"
         sodipodi:ry="36.5"
         sodipodi:rx="50"
         sodipodi:cy="546.5"
         sodipodi:cx="318"
         id="path4008"
         style="fill:#bdb76b;fill-opacity:1;fill-rule:nonzero;stroke:none"
         sodipodi:type="arc" />
      <path
         sodipodi:type="arc"
         style="fill:#bdb76b;fill-opacity:1;fill-rule:nonzero;stroke:none"
         id="path4010"
         sodipodi:cx="318"
         sodipodi:cy="546.5"
         sodipodi:rx="50"
         sodipodi:ry="36.5"
         d="m 368,546.5 c 0,20.15839 -22.38576,36.5 -50,36.5 -27.61424,0 -50,-16.34161 -50,-36.5 0,-20.15839 22.38576,-36.5 50,-36.5 27.61424,0 50,16.34161 50,36.5 z"
         transform="matrix(0.95,0,0,1.0547946,425.3748,568.41698)" />
    </g>
  </g>
</svg>
