<?xml version="1.0" encoding="UTF-8" standalone="no"?>
<!-- Created with Inkscape (http://www.inkscape.org/) -->
<svg id="svg3014" xmlns:rdf="http://www.w3.org/1999/02/22-rdf-syntax-ns#" xmlns="http://www.w3.org/2000/svg" height="200" width="300" version="1.1" xmlns:cc="http://creativecommons.org/ns#" xmlns:dc="http://purl.org/dc/elements/1.1/">
 <metadata id="metadata3019">
  <rdf:RDF>
   <cc:Work rdf:about="">
    <dc:format>image/svg+xml</dc:format>
    <dc:type rdf:resource="http://purl.org/dc/dcmitype/StillImage"/>
    <dc:title/>
   </cc:Work>
  </rdf:RDF>
 </metadata>
 <g id="layer1" transform="translate(0,-852.36218)">
  <rect id="rect3022" height="200" width="300" y="852.36" x="0" fill="#00bfff"/>
  <path id="rect3794" fill="#696969" d="M138,130v17.69h-42.344l42.344,8.34v43.97h26v-43.88l42.34-8.43h-42.34v-17.69h-26z" transform="translate(0,852.36218)"/>
  <rect id="rect3855" transform="matrix(1,0,0.55965768,0.82872389,0,0)" height="8.2125" width="2.6517" y="1044.9" x="-518.6" fill="#000"/>
  <path id="rect3796" opacity="0.35609753" d="m138,1000.4-3.8891-3.5864,29.889,38.93,0-26.477,48.79-10.281z" fill="#000"/>
  <rect id="rect3792" transform="translate(0,852.36218)" height="128" width="260" y="20" x="21" fill="#F00"/>
  <path id="path3884" d="m141.5,990.75c3.9979,0.0186,7.3058-0.7573,9.9239-2.3276,2.618-1.5704,3.9746-4.0467,4.0699-7.429-0.16612-3.8271-1.4786-6.3615-3.9375-7.6032-2.4589-1.2416-5.0677-1.978-7.8262-2.2092-1.6586-0.19395-3.0385-0.44716-4.1396-0.75962-1.1011-0.31243-1.6726-0.85833-1.7144-1.6377,0.0279-0.72011,0.3345-1.2451,0.91991-1.575,0.58539-0.32985,1.2823-0.49246,2.0907-0.48783,0.88737-0.0255,1.6633,0.13708,2.3276,0.48783,0.66437,0.3508,1.0779,1.043,1.2405,2.0768h9.9239c-0.19516-2.8062-1.4217-4.9712-3.6796-6.4951-2.258-1.5239-5.5474-2.2951-9.8681-2.3137-3.5879,0.0128-6.6148,0.79566-9.0806,2.3486-2.4659,1.553-3.7505,3.7993-3.8539,6.739,0.13008,3.4578,1.2498,5.7831,3.3591,6.976s4.4276,1.9153,6.9551,2.1674c1.9002,0.22999,3.5217,0.53662,4.8644,0.91991,1.3427,0.38331,2.0442,1.136,2.1046,2.258-0.0221,0.85836-0.36822,1.4832-1.0384,1.8747-0.6702,0.39143-1.532,0.58424-2.5855,0.57843-1.3392-0.009-2.3683-0.33915-3.0873-0.9896-0.71898-0.65044-1.1209-1.5657-1.2056-2.7458h-10.091c0.0952,3.2766,1.4379,5.7831,4.0281,7.5196,2.5902,1.7364,6.0236,2.6122,10.3,2.6273z" fill="#fffafa"/>
  <path id="path3886" d="m158.03,989.81,10.537,0,0-15.332c0.001-1.5668,0.33334-2.8515,0.99657-3.8539,0.6632-1.0024,1.6505-1.5204,2.9618-1.5541,1.3218,0.0186,2.2603,0.45533,2.8155,1.3102,0.55518,0.85489,0.82464,2.0164,0.8084,3.4845v15.945h10.537v-15.332c0.001-1.5668,0.33332-2.8515,0.99657-3.8539,0.66319-1.0024,1.6505-1.5204,2.9618-1.5541,1.3218,0.0186,2.2602,0.45533,2.8155,1.3102,0.55516,0.85489,0.82463,2.0164,0.80841,3.4845v15.945h10.537v-17.896c0.0197-3.33-0.77244-6.0502-2.3764-8.1607-1.6041-2.1104-4.1385-3.1999-7.6032-3.2685-1.8445-0.0302-3.5496,0.32293-5.1153,1.0593-1.5657,0.73642-2.9642,2.0373-4.1954,3.9027h-0.16725c-0.7341-1.5726-1.7888-2.7899-3.1639-3.6518-1.3752-0.86181-3.0153-1.2985-4.9201-1.3102-2.1291,0.008-3.9201,0.45185-5.3731,1.3311-1.4531,0.87929-2.6726,2.1453-3.6587,3.7981h-0.16725v-4.2372h-10.035z" fill="#fffafa"/>
  <path id="path3888" d="m208.34,989.81,10.537,0,0-28.434-10.537,0zm0-31.89,10.537,0,0-7.9726-10.537,0z" fill="#fffafa"/>
  <path id="path3890" d="m222.71,989.81,10.816,0,0-39.863-10.816,0z" fill="#fffafa"/>
  <path id="path3892" d="m251.69,990.59c1.8003,0.005,3.4404-0.18584,4.9201-0.57146s2.8689-0.99425,4.1675-1.8259c1.4066-0.90597,2.5797-1.9513,3.5194-3.1361,0.93962-1.1847,1.5692-2.4252,1.8886-3.7215h-10.203c-0.78984,1.4031-2.1093,2.1093-3.9584,2.1186-1.5843-0.0151-2.8341-0.48667-3.7493-1.4147-0.91528-0.92803-1.5239-2.2219-1.8259-3.8817h20.294c0.0581-2.8434-0.32293-5.4637-1.1429-7.8611-0.82005-2.3973-2.093-4.4044-3.819-6.0212-1.3044-1.2091-2.8213-2.1499-4.5508-2.8225-1.7295-0.67248-3.7064-1.014-5.9306-1.0244-4.5589,0.0929-8.2084,1.5379-10.948,4.3347-2.74,2.7969-4.1454,6.3883-4.2163,10.774,0.0662,4.4323,1.4948,8.0283,4.286,10.788,2.7911,2.7597,6.5474,4.1814,11.269,4.265zm-0.16726-23.081c1.2672,0.0128,2.3149,0.46114,3.143,1.345,0.82814,0.88392,1.3601,2.1267,1.5959,3.7284h-9.8124c0.27411-1.5773,0.82698-2.8132,1.6586-3.7075,0.83163-0.89434,1.9699-1.3496,3.4148-1.3659z" fill="#fffafa"/>
  <rect id="rect3804" height="11.5" width="23" y="867.36" x="56" fill="#000"/>
  <rect id="rect3806" height="11.5" width="23" y="866.36" x="193.5" fill="#000"/>
  <path id="rect3808" opacity="0.19512191" fill="#000" d="m55.97,878.86,90.562,121.5,23,0-90.562-121.5-23,0z"/>
  <path id="rect3810" opacity="0.19512191" d="M193,25.5l87.84,117.84v-30.84l-64.84-87h-23z" transform="translate(0,852.36218)" fill="#000"/>
  <path id="rect3839" d="m56.038,14.738,17.501,0.35355s-17.689,10.96-17.501,11.314z" transform="translate(0,852.36218)" fill="#696969"/>
  <rect id="rect3842" transform="translate(0,852.36218)" height="6.5407" width="14.672" y="17.566" x="60.458" fill="#696969"/>
  <path id="path3844" d="M60.458,17.566,60.369,24.196,71.948,17.566z" transform="translate(0,852.36218)" fill="#808080"/>
  <path id="rect3846" fill="#dcdcdc" d="m59.224,865.87,0,0.96875,0,6.8125,0.96875,0,0-6.8125,14.844,0,0,6.8125,0.96875,0,0-7.6875-0.09375,0,0-0.0937-16.688,0z"/>
  <g id="g3869" transform="translate(116.5,81.747321)">
   <rect id="rect3857" transform="matrix(1,0,0.55965768,0.82872389,0,0)" height="8.2125" width="2.6517" y="945.97" x="-442.22" fill="#000"/>
   <rect id="rect3859" height="11.5" width="23" y="785.36" x="77" fill="#000"/>
   <path id="path3861" fill="#696969" d="m77.038,785.1,17.501,0.35356s-17.689,10.96-17.501,11.314z"/>
   <rect id="rect3863" height="6.5407" width="14.672" y="787.93" x="81.458" fill="#696969"/>
   <path id="path3865" fill="#808080" d="m81.458,787.93-0.08839,6.6291,11.579-6.6291z"/>
   <path id="path3867" fill="#dcdcdc" d="m80.224,783.87,0,0.96875,0,6.8125,0.96875,0,0-6.8125,14.844,0,0,6.8125,0.96875,0,0-7.6875-0.09375,0,0-0.0937-16.688,0z"/>
  </g>
 </g>
</svg>
