<?xml version="1.0" encoding="UTF-8" standalone="no"?>
<!-- Created with Inkscape (http://www.inkscape.org/) -->
<svg id="svg2" xmlns:rdf="http://www.w3.org/1999/02/22-rdf-syntax-ns#" xmlns="http://www.w3.org/2000/svg" height="450" width="450" version="1.1" xmlns:cc="http://creativecommons.org/ns#" xmlns:dc="http://purl.org/dc/elements/1.1/">
 <metadata id="metadata7">
  <rdf:RDF>
   <cc:Work rdf:about="">
    <dc:format>image/svg+xml</dc:format>
    <dc:type rdf:resource="http://purl.org/dc/dcmitype/StillImage"/>
    <dc:title/>
   </cc:Work>
  </rdf:RDF>
 </metadata>
 <g id="layer1" transform="translate(0,-602.36218)">
  <text id="text3772" style="letter-spacing:0px;word-spacing:0px;" font-weight="normal" xml:space="preserve" font-size="250px" font-stretch="normal" line-height="125%" font-variant="normal" y="866.43359" x="-158.07143" font-family="Haas Grot Disp 95 Black" font-style="normal" fill="#000000"><tspan id="tspan3774" font-size="16px" y="866.43359" x="-158.07143">#f1c40f</tspan></text>
  <g id="g3908" transform="matrix(0.84466465,0,0,0.84466465,215.48616,326.13093)">
   <path id="path3776" d="m148.79,752.79c0.069-0.0518,16.518,8.5051,11.429,22.857-5.0898,14.352,25.714,0.71428,25.714,0.71428l-15.357-31.429z" fill="#34495e"/>
   <path id="path3767" d="m151.65,752.8s23.244,1.1277,25.348,26.049c0.52472,6.2147,10.912,0.25878,15,4.3125,14.677,14.553-2.7734,38.329,13.562,52.844h-20.719c-2.5721,0-4.625,2.0841-4.625,4.6562v6.4062c0,2.5721,2.0529,4.6562,4.625,4.6562h65c2.5721,0,4.6562-2.0841,4.6562-4.6562v-6.4062c0-2.5721-2.0841-4.6562-4.6562-4.6562h-1.6562c-1.4561-6.2629-8.6165-36.125-17.625-56.062-3.67-8.13-18.56-19.28-18.56-19.28l6.0625-7.875z" fill="#e1b300"/>
   <path id="path3847" d="m202.72,152.88c-9.0473,0.0345-17.4-0.29121-17.219,1.125,2.7231,21.321,47.793,30.669,47.5,78.75l15.03,0.25c-1.69-7.2-8.68-35.95-17.47-55.41-3.67-8.13-18.56-19.28-18.56-19.28l4.0938-5.3438c-4.6384-0.0732-9.2405-0.10952-13.375-0.0937z" transform="translate(0,602.36218)" fill="#454545"/>
   <g id="g3809" transform="translate(20.055456,-15.116116)">
    <path id="rect3789" fill="#d3d3d3" d="m9.7622,740.3,33.397,0,0,5.3285-33.397,0-5.1658-2.7682z"/>
    <rect id="rect3792" transform="matrix(1,0,-0.38808906,0.92162187,0,0)" height="5.764" width="1.435" y="803.26" x="323.79" fill="#c0c0c0"/>
    <rect id="rect3797" transform="matrix(1,0,-0.38808906,0.92162187,0,0)" height="5.764" width="1.435" y="803.26" x="327.43" fill="#c0c0c0"/>
    <rect id="rect3799" transform="matrix(1,0,-0.38808906,0.92162187,0,0)" height="5.764" width="1.435" y="803.26" x="331.31" fill="#c0c0c0"/>
    <rect id="rect3801" transform="matrix(1,0,-0.38808906,0.92162187,0,0)" height="5.764" width="1.435" y="803.26" x="335" fill="#c0c0c0"/>
    <rect id="rect3803" transform="matrix(1,0,-0.38808906,0.92162187,0,0)" height="5.764" width="1.435" y="803.26" x="338.78" fill="#c0c0c0"/>
    <rect id="rect3805" transform="matrix(1,0,-0.38808906,0.92162187,0,0)" height="5.764" width="1.435" y="803.26" x="342.7" fill="#c0c0c0"/>
    <rect id="rect3807" transform="matrix(1,0,-0.38808906,0.92162187,0,0)" height="5.764" width="1.435" y="803.26" x="346.3" fill="#c0c0c0"/>
   </g>
   <path id="rect2985" d="m56.848,724.73,18.881-7.8571,0,22.857-18.766-8.7014z" fill="#bdc3c7"/>
   <path id="path3756" fill="#777" d="m72.505,713.82,12.062-5.9091,0,40.787-11.715-6.0638z"/>
   <path id="path3758" d="m220.78,98.406-0.0625,0.09375-126.28,0-7.5625,8.1562,0.25,39.875,7.3125,8.375,0-0.21875,126.44,0,0-0.25s27.402-14.788,28.719-16.281c1.3166-1.4932,2.7771-31.676,2.2188-32.438-0.55837-0.76194-31.031-7.3125-31.031-7.3125z" transform="translate(0,602.36218)" fill="#f1c40f"/>
   <rect id="rect3760" height="42.993" width="3.283" y="706.93" x="84.169" fill="#7f8c8d"/>
   <path id="path3781" d="m94.438,700.86-7.5625,8.1562,0.25,39.875,7.3125,8.375,0-0.21875,13.946,0,0-56.188z" fill="#34495e"/>
   <rect id="rect3852" height="25.75" width="50.5" y="714.86" x="141.75" fill="#454545"/>
   <g id="g3864" fill="#454545" transform="translate(0,-1.25)">
    <rect id="rect3854" rx="2.75" ry="1.5" height="3" width="41" y="716.86" x="201.75"/>
    <rect id="rect3856" rx="2.75" ry="1.5" height="3" width="41" y="721.86" x="201.75"/>
    <rect id="rect3858" rx="2.75" ry="1.5" height="3" width="41" y="726.86" x="201.75"/>
    <rect id="rect3860" rx="2.75" ry="1.5" height="3" width="41" y="731.86" x="201.75"/>
    <rect id="rect3862" rx="2.75" ry="1.5" height="3" width="41" y="736.86" x="201.75"/>
   </g>
   <path id="rect3871" opacity="0.26341463" d="m220.78,98.406-0.0625,0.09375-112.34,0-13.938,0-7,7.5625,0-1.5-3.2812,0,0,1.1562-11.656,5.75,0.0625,4.3438l-15.724,6.57,0.094,4.62,194.06,0.12s1.1171-21.334,0.8125-21.656c-0.30458-0.32217-31.031-7.0625-31.031-7.0625z" transform="translate(0,602.36218)" fill="#FFF"/>
   <path id="rect3873" d="m180.22,243,0,1.7188c0,2.5721,2.0529,4.6562,4.625,4.6562h65c2.5721,0,4.6562-2.0841,4.6562-4.6562v-1.7188h-74.281z" fill="#000" transform="translate(0,602.36218)"/>
  </g>
  <g id="g3966" transform="matrix(0.28405728,0,0,0.28405728,36.204369,380.80458)">
   <rect id="rect3942" ry="14" height="28" width="74" y="835.36" x="-1" fill="#000"/>
   <rect id="rect3936" rx="0" ry="0" height="28.284" width="329.47" y="835.28" x="53.74" fill="#35688a"/>
   <rect id="rect3940" rx="0" ry="0" height="10.784" width="329.53" y="835.28" x="53.74" fill="#3e98d3"/>
   <rect id="rect3938" rx="2.9388" ry="0.94444" height="12.021" width="329.47" y="843.06" x="53.783" fill="#2980b9"/>
   <path id="rect3944" opacity="0.59024389" d="m13.156,240.75c0.20127,2.1148,0.34375,4.3269,0.34375,6.625,0,1.8472-0.08698,3.6412-0.21875,5.375h40.469v-12h-40.594z" transform="translate(0,602.36218)" fill="#837676"/>
   <rect id="rect3946" opacity="0.74634" transform="translate(0,602.36218)" height="28" width="2.75" y="232.75" x="51.25" fill="#FFF"/>
   <path id="rect3951" d="m382.81,835.17,67.063,13.894-67.063,14.543z" fill="#ebf0c7"/>
   <path id="path3954" d="m386.26,236.28c0,2.2455-1.2663,4.0659-2.8284,4.0659s-2.8284-1.8204-2.8284-4.0659,1.2663-4.0659,2.8284-4.0659,2.8284,1.8204,2.8284,4.0659z" transform="matrix(1.5588235,0,0,1,-215.69357,602.89251)" fill="#ebf0c7"/>
   <path id="path3956" d="m386.26,236.28c0,2.2455-1.2663,4.0659-2.8284,4.0659s-2.8284-1.8204-2.8284-4.0659,1.2663-4.0659,2.8284-4.0659,2.8284,1.8204,2.8284,4.0659z" transform="matrix(1.5588235,0,0,1.5217391,-215.87034,489.69385)" fill="#ebf0c7"/>
   <path id="path3958" d="m386.26,236.28c0,2.2455-1.2663,4.0659-2.8284,4.0659s-2.8284-1.8204-2.8284-4.0659,1.2663-4.0659,2.8284-4.0659,2.8284,1.8204,2.8284,4.0659z" transform="matrix(1.5588235,0,0,1,-214.96566,623.22183)" fill="#ebf0c7"/>
   <path id="path3960" d="m433.12,243.25c-0.58272,1.2034-0.90625,2.4678-0.90625,3.7812,0,1.157,0.26275,2.2699,0.71875,3.3438l16.938-3.6562-16.75-3.4688z" fill="#696969" transform="translate(0,602.36218)"/>
  </g>
  <g id="g4028" transform="matrix(0.51186636,0,0,0.55193866,17.8084,297.80267)">
   <rect id="rect4024" height="171.83" width="130.81" y="633.4" x="42.78" fill="#692c2c"/>
   <rect id="rect4026" height="171.83" width="130.81" y="633.4" x="45.255" fill="#f5f5f5"/>
   <rect id="rect3979" height="171.83" width="130.81" y="633.75" x="47.023" fill="#800000"/>
   <g id="g3990" transform="translate(0,8.8388348)">
    <rect id="rect3983" ry="2.1213" height="4.2426" width="15.203" y="642.24" x="38.537" fill="#bdc3c7"/>
    <path id="rect3985" opacity="0.50731704" d="m40.656,39.875c-1.1752,0-2.125,0.94979-2.125,2.125h15.219c0-1.1752-0.94979-2.125-2.125-2.125h-10.969z" transform="translate(0,602.36218)" fill="#FFF"/>
   </g>
   <g id="g3994" transform="translate(0,20.463835)">
    <rect id="rect3996" ry="2.1213" height="4.2426" width="15.203" y="642.24" x="38.537" fill="#bdc3c7"/>
    <path id="path3998" opacity="0.50731704" d="m40.656,39.875c-1.1752,0-2.125,0.94979-2.125,2.125h15.219c0-1.1752-0.94979-2.125-2.125-2.125h-10.969z" transform="translate(0,602.36218)" fill="#FFF"/>
   </g>
   <g id="g4000" transform="translate(0,32.838204)">
    <rect id="rect4002" ry="2.1213" height="4.2426" width="15.203" y="642.24" x="38.537" fill="#bdc3c7"/>
    <path id="path4004" opacity="0.50731704" d="m40.656,39.875c-1.1752,0-2.125,0.94979-2.125,2.125h15.219c0-1.1752-0.94979-2.125-2.125-2.125h-10.969z" transform="translate(0,602.36218)" fill="#FFF"/>
   </g>
   <g id="g4006" transform="translate(0,117.73328)">
    <rect id="rect4008" ry="2.1213" height="4.2426" width="15.203" y="642.24" x="38.537" fill="#bdc3c7"/>
    <path id="path4010" opacity="0.50731704" d="m40.656,39.875c-1.1752,0-2.125,0.94979-2.125,2.125h15.219c0-1.1752-0.94979-2.125-2.125-2.125h-10.969z" transform="translate(0,602.36218)" fill="#FFF"/>
   </g>
   <g id="g4012" transform="translate(0,129.35828)">
    <rect id="rect4014" ry="2.1213" height="4.2426" width="15.203" y="642.24" x="38.537" fill="#bdc3c7"/>
    <path id="path4016" opacity="0.50731704" d="m40.656,39.875c-1.1752,0-2.125,0.94979-2.125,2.125h15.219c0-1.1752-0.94979-2.125-2.125-2.125h-10.969z" transform="translate(0,602.36218)" fill="#FFF"/>
   </g>
   <g id="g4018" transform="translate(0,141.73265)">
    <rect id="rect4020" ry="2.1213" height="4.2426" width="15.203" y="642.24" x="38.537" fill="#bdc3c7"/>
    <path id="path4022" opacity="0.50731704" d="m40.656,39.875c-1.1752,0-2.125,0.94979-2.125,2.125h15.219c0-1.1752-0.94979-2.125-2.125-2.125h-10.969z" transform="translate(0,602.36218)" fill="#FFF"/>
   </g>
  </g>
  <g id="g4053" transform="matrix(0.28405728,0,0,0.28405728,37.204369,393.80458)">
   <rect id="rect4055" ry="14" height="28" width="74" y="835.36" x="-1" fill="#000"/>
   <rect id="rect4057" rx="0" ry="0" height="28.284" width="329.47" y="835.28" x="53.74" fill="#35688a"/>
   <rect id="rect4059" rx="0" ry="0" height="10.784" width="329.53" y="835.28" x="53.74" fill="#3e98d3"/>
   <rect id="rect4061" rx="2.9388" ry="0.94444" height="12.021" width="329.47" y="843.06" x="53.783" fill="#2980b9"/>
   <path id="path4063" opacity="0.59024389" d="m13.156,240.75c0.20127,2.1148,0.34375,4.3269,0.34375,6.625,0,1.8472-0.08698,3.6412-0.21875,5.375h40.469v-12h-40.594z" transform="translate(0,602.36218)" fill="#837676"/>
   <rect id="rect4065" opacity="0.74634" transform="translate(0,602.36218)" height="28" width="2.75" y="232.75" x="51.25" fill="#FFF"/>
   <path id="path4067" fill="#ebf0c7" d="m382.81,835.17,67.063,13.894-67.063,14.543z"/>
   <path id="path4069" d="m386.26,236.28c0,2.2455-1.2663,4.0659-2.8284,4.0659s-2.8284-1.8204-2.8284-4.0659,1.2663-4.0659,2.8284-4.0659,2.8284,1.8204,2.8284,4.0659z" transform="matrix(1.5588235,0,0,1,-215.69357,602.89251)" fill="#ebf0c7"/>
   <path id="path4071" d="m386.26,236.28c0,2.2455-1.2663,4.0659-2.8284,4.0659s-2.8284-1.8204-2.8284-4.0659,1.2663-4.0659,2.8284-4.0659,2.8284,1.8204,2.8284,4.0659z" transform="matrix(1.5588235,0,0,1.5217391,-215.87034,489.69385)" fill="#ebf0c7"/>
   <path id="path4073" d="m386.26,236.28c0,2.2455-1.2663,4.0659-2.8284,4.0659s-2.8284-1.8204-2.8284-4.0659,1.2663-4.0659,2.8284-4.0659,2.8284,1.8204,2.8284,4.0659z" transform="matrix(1.5588235,0,0,1,-214.96566,623.22183)" fill="#ebf0c7"/>
   <path id="path4075" d="m433.12,243.25c-0.58272,1.2034-0.90625,2.4678-0.90625,3.7812,0,1.157,0.26275,2.2699,0.71875,3.3438l16.938-3.6562-16.75-3.4688z" transform="translate(0,602.36218)" fill="#696969"/>
  </g>
  <g id="g4312" transform="matrix(1.1477354,0,0,1.1477354,-78.442789,-57.603857)">
   <rect id="rect4051" ry="6.9594" height="146.92" width="71.795" y="619.66" x="176.78" fill="#d3d3d3"/>
   <g id="g4259" fill="#fffafa" transform="translate(8.0265806,-0.16418791)">
    <g id="g4081" transform="matrix(2.2042282,0,0,2.2042282,-257.69122,-782.84013)">
     <rect id="rect4077" ry="0" height="7" width="13.404" y="693.36" x="203"/>
     <rect id="rect4079" ry="0" height="13.081" width="6.7175" y="687.14" x="202.23"/>
    </g>
    <rect id="rect4085" height="74.808" width="11.69" y="653.67" x="172.94"/>
    <rect id="rect4087" height="14.808" width="14.807" y="714.11" x="188.08"/>
    <rect id="rect4089" height="14.808" width="14.807" y="696.45" x="188.08"/>
    <rect id="rect4091" height="14.808" width="14.807" y="678.78" x="188.08"/>
    <rect id="rect4093" height="14.808" width="14.807" y="661.12" x="188.08"/>
    <rect id="rect4095" height="14.808" width="14.807" y="643.45" x="188.08"/>
    <rect id="rect4097" height="14.808" width="14.807" y="625.64" x="188.08"/>
    <rect id="rect4165" height="14.808" width="14.807" y="727.05" x="205.33"/>
    <rect id="rect4167" height="14.808" width="14.807" y="709.38" x="205.33"/>
    <rect id="rect4169" height="14.808" width="14.807" y="691.72" x="205.33"/>
    <rect id="rect4171" height="14.808" width="14.807" y="674.06" x="205.33"/>
    <rect id="rect4173" height="14.808" width="14.807" y="656.39" x="205.33"/>
    <rect id="rect4175" height="14.808" width="14.807" y="638.73" x="205.33"/>
    <rect id="rect4177" height="10.765" width="14.807" y="625.64" x="205.59"/>
    <rect id="rect4179" height="25.754" width="11.69" y="625.64" x="172.94"/>
    <rect id="rect4181" height="29.258" width="11.69" y="731.66" x="172.94"/>
    <rect id="rect4183" height="14.808" width="6.3363" y="727.05" x="222.84"/>
    <rect id="rect4185" height="14.808" width="6.3363" y="709.38" x="222.84"/>
    <rect id="rect4187" height="14.808" width="6.3363" y="691.72" x="222.84"/>
    <rect id="rect4189" height="14.808" width="6.3363" y="674.06" x="222.84"/>
    <rect id="rect4191" height="14.808" width="6.3363" y="656.39" x="222.84"/>
    <rect id="rect4193" height="14.808" width="6.3363" y="638.73" x="222.84"/>
    <rect id="rect4195" height="10.765" width="6.3363" y="625.64" x="222.96"/>
    <rect id="rect4197" height="14.808" width="6.3363" y="746.11" x="222.84"/>
   </g>
  </g>
  <g id="g4305" transform="matrix(0.49406097,0,0,0.49406097,89.645544,440.78366)">
   <path id="path4288" d="m212.84,810.53c0,13.668-5.0215,24.749-30.406,24.749s-61.518-3.3022-61.518-24.749,36.134-24.749,61.518-24.749,30.406,11.08,30.406,24.749z" fill="#dcdcdc"/>
   <rect id="rect4293" ry="0.25" height="0.5" width="9.75" y="810.28" x="203" fill="#a9a9a9"/>
   <path id="rect4295" opacity="0.31219512" d="m182.44,183.41c-25.384,0-61.531,3.3035-61.531,24.75,0,0.28279,0.0188,0.56723,0.0312,0.84375h91.875c0.005-0.28252,0.0312-0.55891,0.0312-0.84375,0-13.668-5.0222-24.75-30.406-24.75z" transform="translate(0,602.36218)" fill="#FFF"/>
   <rect id="rect4291" ry="3.182" height="6.364" width="26.87" y="807.35" x="180.97" fill="#656565"/>
   <path id="rect4300" opacity="0.31219512" d="m184.16,205c-1.6199,0-2.9513,1.1878-3.1562,2.75h26.812c-0.20494-1.5622-1.5363-2.75-3.1562-2.75h-20.5z" transform="translate(0,602.36218)" fill="#dcdcdc"/>
  </g>
  <g id="g4359" transform="translate(-241.83051,3.5355339)">
   <path id="rect4355" d="m462.67,700.4,31.547,11.314c0.76253,0.27347,1.4622,0.65216,1.4622,1.4622v53.291c0,0.81008-0.68324,1.24-1.4622,1.4622l-31.547,9c-0.779,0.22224-1.4622-0.65216-1.4622-1.4622v-73.604c0-0.81008,0.69971-1.7357,1.4622-1.4622z" fill="#b2b2b2"/>
   <rect id="rect4343" ry="1.591" height="270.82" width="12.021" y="606.88" x="468.81" fill="#222"/>
   <path id="rect4345" opacity="0.8" d="m470.41,606.89c-0.88141,0-1.5938,0.71234-1.5938,1.5938v267.62c0,0.88141,0.71234,1.5938,1.5938,1.5938h4.0625v-270.81h-4.0625z" fill="#FFF"/>
   <path id="rect4352" d="m479.89,718.73,14.369-6.5407c0.8022-0.36515,1.591,0.70958,1.591,1.591v52.149c0,0.88141-0.84852,2.066-1.591,1.591l-14.369-9.1924c-0.74248-0.47499-1.591-0.70958-1.591-1.591v-36.416c0-0.88141,0.78878-1.2258,1.591-1.591z" fill="#dcdcdc"/>
  </g>
  <g id="g4407" transform="matrix(0.44454071,0,0,0.44454071,9.0624874,465.72789)">
   <path id="rect4393" d="m415.69,328.12-28.938,3.5312-164.16,0c-3.5189,0-6.3438,0.71724-6.3438,1.625v9.9688c0,0.90776,2.8248,1.6562,6.3438,1.6562h164.16l28.938,2.625,18.781-5.6875,0.0312-8.6562-18.812-5.0625z" fill="#dcdcdc" transform="translate(0,602.36218)"/>
   <path id="rect4395" d="m415.69,328.12-28.938,3.5312-164.16,0c-3.5189,0-6.3438,0.71724-6.3438,1.625v1.7812c0,1.2902,3.3546,2.3438,7.5312,2.3438h207.19c1.2856,0,2.4742-0.1074,3.5312-0.28125v-3.9375l-18.812-5.0625z" fill="#f5f5f5" transform="translate(0,602.36218)"/>
  </g>
  <rect id="rect4380" rx="4.8206" ry="8.8935" height="17.787" width="68.229" y="874.34" x="49.851" fill="#333"/>
  <rect id="rect4387" rx="2.6791" ry="4.0864" height="4.0864" width="57.602" y="881.17" x="54.566" fill="#FF0"/>
  <rect id="rect4389" rx="2.442" ry="4.0864" height="4.0864" width="52.503" y="875.25" x="57.999" fill="#FF0"/>
  <rect id="rect4391" rx="2.442" ry="4.0864" height="4.0864" width="52.503" y="887.01" x="57.999" fill="#FF0"/>
  <rect id="rect4385" rx="1.523" ry="1.0857" height="26.09" width="4.9499" y="870.19" x="115.65" fill="#333"/>
  <g id="g4441" transform="matrix(-0.44454071,0,0,0.44454071,244.00397,485.71927)">
   <path id="path4443" d="m422.86,331.22-36.108,0.43817-164.16,0c-3.5189,0-6.3438,0.71724-6.3438,1.625v9.9688c0,0.90776,2.8248,1.6562,6.3438,1.6562h164.16l35.604,0.0804,17.183-7.832z" transform="translate(0,602.36218)" fill="#dcdcdc"/>
   <path id="path4445" d="m423.14,331.36-36.389,0.29757-164.16,0c-3.5189,0-6.3438,0.71724-6.3438,1.625v1.7812c0,1.2902,3.3546,2.3438,7.5312,2.3438h207.19c1.2856,0,8.7332-0.28125,8.7332-0.28125z" transform="translate(0,602.36218)" fill="#f5f5f5"/>
  </g>
  <path id="rect4447" transform="translate(0,602.36218)" fill="#333" d="M134,287.81c-0.84,0-1.53,0.49-1.53,1.1v23.9c0,0.6,0.69,1.1,1.53,1.1h1.88c0.84,0,1.53-0.5,1.53-1.1v-4.22c0.7,0.74,1.53,1.16,2.4,1.16h58.6c2.67,0,4.81-3.95,4.81-8.87,0-4.93-2.14-8.91-4.81-8.91h-58.6c-0.87,0-1.7,0.42-2.4,1.15v-4.21c0-0.61-0.69-1.1-1.53-1.1h-1.88z"/>
  <rect id="rect4449" transform="scale(-1,1)" rx="2.6791" ry="4.0864" height="4.0864" width="57.602" y="901.16" x="-198.5" fill="#FF0"/>
  <rect id="rect4451" transform="scale(-1,1)" rx="2.442" ry="4.0864" height="4.0864" width="52.503" y="895.24" x="-195.07" fill="#FF0"/>
  <rect id="rect4453" transform="scale(-1,1)" rx="2.442" ry="4.0864" height="4.0864" width="52.503" y="907" x="-195.07" fill="#FF0"/>
  <path id="path4457" d="m56.452,304.43,4.6903-3.3195-5.0379-2.722-7.491,2.5894z" transform="translate(0,602.36218)" fill="#d3d3d3"/>
  <path id="rect4485" opacity="0.23414634" d="M117.19,267.84c-0.85,0-1.53,0.46-1.53,1.07v4.25c-0.71-0.74-1.54-1.19-2.41-1.19h-58.594c-2.434,0-4.416,3.31-4.75,7.62h70.684v-10.68c0-0.61-0.65-1.07-1.5-1.07h-1.9z" transform="translate(0,602.36218)" fill="#FFF"/>
  <path id="path4514" opacity="0.26341463" d="M134,287.81c-0.84,0-1.53,0.49-1.53,1.1v12.78h70.72c0.01-0.28,0.03-0.53,0.03-0.81,0-4.93-2.14-8.91-4.81-8.91h-58.6c-0.87,0-1.7,0.42-2.4,1.15v-4.21c0-0.61-0.69-1.1-1.53-1.1h-1.88z" transform="translate(0,602.36218)" fill="#FFF"/>
  <g id="g4540" transform="translate(-186.5,268.5)">
   <rect id="rect4519" ry="0.092965" height="96" width="8" y="673.36" x="369" fill="#ffe4c4"/>
   <rect id="rect4527" opacity="0.30732" ry="0.08915" height="95.896" width="4" y="673.36" x="372.97" fill="#717171"/>
   <g id="g4536">
    <path id="rect4524" fill="#000" d="m351.25,674.62,37.067-0.0104,30.183,14-67.25,0z"/>
    <path id="path4531" opacity="0.50243901" d="m351.25,72.25,0,14,1.75,0,40.688-11.5-5.375-2.5-37.062,0z" transform="translate(0,602.36218)" fill="#FFF"/>
   </g>
  </g>
 </g>
</svg>
