<?xml version="1.0" encoding="UTF-8" standalone="no"?>
<!-- Created with Inkscape (http://www.inkscape.org/) -->
<svg id="svg3938" xmlns:rdf="http://www.w3.org/1999/02/22-rdf-syntax-ns#" xmlns="http://www.w3.org/2000/svg" height="200" width="300" version="1.1" xmlns:cc="http://creativecommons.org/ns#" xmlns:dc="http://purl.org/dc/elements/1.1/">
 <metadata id="metadata3943">
  <rdf:RDF>
   <cc:Work rdf:about="">
    <dc:format>image/svg+xml</dc:format>
    <dc:type rdf:resource="http://purl.org/dc/dcmitype/StillImage"/>
    <dc:title/>
   </cc:Work>
  </rdf:RDF>
 </metadata>
 <g id="layer1" transform="translate(0,-852.36218)">
  <rect id="rect4037" transform="translate(0,852.36218)" height="200.82" width="300.52" y="-0.11122" x="-0.70711" fill="#66cdaa"/>
  <rect id="rect3232" height="200.47" width="250.37" y="851.89" x="49.731" fill="#ffd0a6"/>
  <rect id="rect4010" opacity="0.22624" height="9.8995" width="251.37" y="886.89" x="48.731" fill="#000"/>
  <path id="rect4016" opacity="0.20814478" fill="#000" d="m102.22,901.36-0.5625,0.5625,0.125,12.656,15.25,0,0,41.25,13.531,13.531,238.03,0-65.062-64.125-34.812,10.062-11.281-13.25-17.375,13.906-16.469-14.406-14.312,19.688-14.219-15.344-31,8.9062-15.562-13.438-46.281,0z"/>
  <rect id="rect3230" height="31.113" width="276.42" y="961.78" x="22.64" fill="#ffdab9"/>
  <rect id="rect4002" opacity="0.22624" height="9.8995" width="252.37" y="992.89" x="49.731" fill="#000"/>
  <g id="text4004" style="letter-spacing:0px;word-spacing:0px;" font-weight="normal" transform="translate(0,4)" font-size="250px" font-stretch="normal" line-height="125%" font-variant="normal" font-family="Haas Grot Disp 95 Black" font-style="normal" fill="#ffe4e1">
   <path id="path4040" d="m102.46,910.43,15.15,0,0,40.274,15.675,0,0-40.274,15.375,0,0-13.35-46.199,0z"/>
   <path id="path4042" d="m178.1,951.98c8.4217-0.15938,15.053-2.8031,19.894-7.9312,4.8405-5.128,7.3092-11.784,7.4062-19.968-0.0969-8.1874-2.5656-14.856-7.4062-20.006-4.8406-5.1499-11.472-7.8061-19.894-7.9686-8.4155,0.16255-15.022,2.8188-19.818,7.9686-4.7968,5.15-7.2405,11.819-7.3312,20.006,0.0906,8.1843,2.5343,14.84,7.3312,19.968,4.7968,5.1281,11.403,7.7718,19.818,7.9312zm0.075-12.525c-3.7531-0.0922-6.5781-1.5578-8.4749-4.3968-1.8969-2.839-2.8468-6.4983-2.85-10.978,0.003-4.4827,0.95309-8.1546,2.85-11.015,1.8968-2.8609,4.7218-4.339,8.4749-4.4343,3.753,0.0954,6.578,1.5735,8.4749,4.4343,1.8968,2.8609,2.8468,6.5328,2.85,11.015-0.003,4.4796-0.95315,8.139-2.85,10.978-1.8969,2.839-4.7218,4.3046-8.4749,4.3968z"/>
   <path id="path4044" d="m209.74,950.7,15.675,0,0-17.325,3.45-3.9,13.65,21.225,18.225,0-21.15-32.025,20.025-21.6-18,0-16.2,17.55,0-17.55-15.675,0z"/>
   <path id="path4046" d="m288.69,951.98c8.4217-0.15938,15.053-2.8031,19.893-7.9312,4.8405-5.128,7.3092-11.784,7.4062-19.968-0.0969-8.1874-2.5656-14.856-7.4062-20.006-4.8406-5.1499-11.472-7.8061-19.893-7.9686-8.4155,0.16255-15.022,2.8188-19.818,7.9686-4.7968,5.15-7.2405,11.819-7.3312,20.006,0.0906,8.1843,2.5343,14.84,7.3312,19.968,4.7968,5.1281,11.403,7.7718,19.818,7.9312zm0.075-12.525c-3.7531-0.0922-6.5781-1.5578-8.4749-4.3968-1.8969-2.839-2.8469-6.4983-2.85-10.978,0.003-4.4827,0.9531-8.1546,2.85-11.015,1.8968-2.8609,4.7218-4.339,8.4749-4.4343,3.753,0.0954,6.578,1.5735,8.4749,4.4343,1.8968,2.8609,2.8468,6.5328,2.85,11.015-0.003,4.4796-0.95315,8.139-2.85,10.978-1.8969,2.839-4.7218,4.3046-8.4749,4.3968z"/>
  </g>
  <rect id="rect4008" height="37.113" width="276.17" y="851.28" x="23.89" fill="#ffdab9"/>
 </g>
</svg>
