<?xml version="1.0" encoding="UTF-8" standalone="no"?>
<!-- Created with Inkscape (http://www.inkscape.org/) -->

<svg
   xmlns:dc="http://purl.org/dc/elements/1.1/"
   xmlns:cc="http://creativecommons.org/ns#"
   xmlns:rdf="http://www.w3.org/1999/02/22-rdf-syntax-ns#"
   xmlns:svg="http://www.w3.org/2000/svg"
   xmlns="http://www.w3.org/2000/svg"
   xmlns:sodipodi="http://sodipodi.sourceforge.net/DTD/sodipodi-0.dtd"
   xmlns:inkscape="http://www.inkscape.org/namespaces/inkscape"
   width="300"
   height="200"
   id="svg3938"
   version="1.1"
   inkscape:version="0.48.4 r9939"
   sodipodi:docname="htimbul-ink.svg">
  <defs
     id="defs3940" />
  <sodipodi:namedview
     id="base"
     pagecolor="#ffffff"
     bordercolor="#666666"
     borderopacity="1.0"
     inkscape:pageopacity="0.0"
     inkscape:pageshadow="2"
     inkscape:zoom="1"
     inkscape:cx="268.15953"
     inkscape:cy="-404.27887"
     inkscape:document-units="px"
     inkscape:current-layer="layer1"
     showgrid="false"
     inkscape:window-width="1024"
     inkscape:window-height="717"
     inkscape:window-x="-4"
     inkscape:window-y="-4"
     inkscape:window-maximized="1" />
  <metadata
     id="metadata3943">
    <rdf:RDF>
      <cc:Work
         rdf:about="">
        <dc:format>image/svg+xml</dc:format>
        <dc:type
           rdf:resource="http://purl.org/dc/dcmitype/StillImage" />
        <dc:title />
      </cc:Work>
    </rdf:RDF>
  </metadata>
  <g
     inkscape:label="Layer 1"
     inkscape:groupmode="layer"
     id="layer1"
     transform="translate(0,-852.36218)">
    <rect
       style="opacity:1;fill:#66cdaa;fill-opacity:1;stroke:none"
       id="rect4037"
       width="300.52039"
       height="200.81833"
       x="-0.70710677"
       y="-0.11121913"
       transform="translate(0,852.36218)" />
    <rect
       style="fill:#ffd0a6;fill-opacity:1;stroke:none"
       id="rect3232"
       width="250.37466"
       height="200.46803"
       x="49.731491"
       y="851.89417" />
    <rect
       style="opacity:0.22624434;fill:#000000;fill-opacity:1;stroke:none"
       id="rect4010"
       width="251.37466"
       height="9.8994923"
       x="48.731491"
       y="886.89417" />
    <path
       style="opacity:0.20814478;fill:#000000;fill-opacity:1;stroke:none"
       d="m 102.21875,901.36218 -0.5625,0.5625 0.125,12.65625 15.25,0 0,41.25 13.53125,13.53125 238.03125,0 -65.0625,-64.125 -34.8125,10.0625 -11.28125,-13.25 -17.375,13.90625 -16.46875,-14.40625 -14.3125,19.6875 -14.21875,-15.34375 -31,8.90625 -15.5625,-13.4375 -46.28125,0 z"
       id="rect4016"
       inkscape:connector-curvature="0" />
    <rect
       style="fill:#ffdab9;fill-opacity:1;stroke:none"
       id="rect3970"
       width="300"
       height="200"
       x="9.1923876"
       y="1077.2222" />
    <path
       style="opacity:0.38048778;fill:#000000;fill-opacity:1;stroke:none"
       d="m 28.434496,1214.1722 25.751424,-25.4971 14.544968,-40.4105 16.456763,-22.5504 40.795179,28.8381 5.20739,-20.1204 43.0024,0.9686 13.87578,-1.6951 30.62671,21.7182 13.50075,-21.9603 27.00151,1.4529 19.62609,4.7221 30.20942,24.5149 0.58592,114.017 c -68.6895,-0.1097 -132.37912,-1.094 -201.06869,-1.1142 z"
       id="path4488"
       inkscape:connector-curvature="0"
       sodipodi:nodetypes="cccccccccccccccc" />
    <path
       d="m 28.91194,1214.2951 25.251818,0 4.249104,-12.7473 29.379519,0 2.237962,10.7386 2.011142,2.0087 26.951465,0 -32.171793,-86.8031 -2.012537,-1.9446 -23.846296,1.9446 -34.015467,84.7604 z m 40.912801,-47.2258 c 0.773903,-2.3243 1.50232,-4.7169 2.185254,-7.1779 0.682848,-2.4609 1.047057,-3.7913 1.092626,-3.9911 l 0.242806,0 c 0.05307,0.1998 0.432454,1.5302 1.138152,3.9911 0.705608,2.461 1.41885,4.8536 2.139728,7.1779 l 5.463134,16.9965 -17.96764,0 z"
       style="font-size:121.40453339px;font-style:normal;font-variant:normal;font-weight:normal;font-stretch:normal;line-height:125%;letter-spacing:0px;word-spacing:0px;fill:#000000;fill-opacity:1;stroke:none;font-family:Haas Grot Disp 95 Black;-inkscape-font-specification:Haas Grot Disp 95 Black"
       id="path4482"
       inkscape:connector-curvature="0"
       sodipodi:nodetypes="ccccccccccccscccccccs" />
    <path
       d="m 123.38295,1214.2951 45.76892,0 c 4.47921,0 8.45009,-0.4553 11.91266,-1.3658 3.46245,-0.9105 6.49246,-2.2763 9.09005,-4.0973 3.12352,-2.1929 5.55664,-5.0307 7.29935,-8.5134 1.74256,-3.4828 2.62779,-7.5649 2.65569,-12.2465 -0.0304,-4.9826 -1.33551,-9.3126 -3.91524,-12.9902 -2.57989,-3.6774 -6.25233,-6.3078 -11.01732,-7.8912 l 0,-0.3642 c 3.63696,-1.5579 6.34829,-3.6926 8.134,-6.404 1.78556,-2.7113 2.67584,-6.1206 2.67086,-10.2282 -0.0178,-3.5965 -0.74114,-6.844 -2.17007,-9.7426 -1.42909,-2.8984 -3.45753,-5.3568 -6.08533,-7.3752 -2.29661,-1.7729 -5.0484,-3.1437 -8.2554,-4.1125 -3.20712,-0.9686 -6.93014,-1.4593 -11.16907,-1.472 l -44.9191,0 -1.98041,84.7599 z m 24.88761,-19.9101 0,-16.875 17.96764,0 c 2.67334,0 4.88388,0.6981 6.63163,2.0942 1.74764,1.3962 2.6531,3.4904 2.71639,6.2826 -0.0431,2.638 -0.89793,4.7069 -2.56464,6.2067 -1.66681,1.4999 -3.88747,2.2637 -6.66198,2.2915 z m 0,-33.143 0,-14.0827 15.66098,0 c 2.46848,0.018 4.45139,0.65 5.94875,1.8969 1.49725,1.2469 2.26613,3.0022 2.30665,5.2658 -0.0355,2.3067 -0.78411,4.0367 -2.24596,5.19 -1.46194,1.1534 -3.42462,1.73 -5.88804,1.73 z"
       style="font-size:121.40453339px;font-style:normal;font-variant:normal;font-weight:normal;font-stretch:normal;line-height:125%;letter-spacing:0px;word-spacing:0px;fill:#000000;fill-opacity:1;stroke:none;font-family:Haas Grot Disp 95 Black;-inkscape-font-specification:Haas Grot Disp 95 Black"
       id="path4484"
       inkscape:connector-curvature="0"
       sodipodi:nodetypes="cssccccccccccccccccccccccccccccccc" />
    <path
       d="m 247.55142,1216.116 c 6.28002,0.018 11.80891,-0.8068 16.58668,-2.4736 4.77765,-1.6667 9.00146,-4.282 12.67144,-7.8456 3.13363,-3.0048 5.69827,-6.5558 7.69391,-10.6532 1.99548,-4.0973 3.19433,-8.5588 3.59656,-13.3846 l -2.03368,-1.8527 -23.58234,1.8527 c -0.44521,3.9658 -1.95263,7.2032 -4.52227,9.7122 -2.56975,2.509 -6.08031,3.804 -10.5317,3.8849 -5.69334,-0.129 -10.11948,-2.4205 -13.27845,-6.8744 -3.15904,-4.454 -4.76257,-10.2965 -4.81059,-17.5276 -0.008,-7.231 1.46439,-13.0735 4.41603,-17.5276 2.95157,-4.4539 7.4283,-6.7453 13.4302,-6.8744 4.18077,0.1114 7.56487,1.4063 10.15233,3.8849 2.23411,2.1403 1.97565,4.0903 2.54659,6.9999 0.0903,0.4601 1.82075,1.888 1.86944,1.9839 l 25.37322,0 c -0.55398,-5.5693 -2.11705,-10.6682 -4.68919,-15.2968 -2.5723,-4.6284 -6.10816,-8.5133 -10.60758,-11.6546 -3.18184,-2.1953 -6.83404,-3.8747 -10.95662,-5.0383 -4.1227,-1.1633 -8.56402,-1.7501 -13.32398,-1.7603 -13.25066,0.2631 -23.838,4.5628 -31.76205,12.8991 -7.92408,8.3364 -11.98602,19.1311 -12.18582,32.3842 0.17704,13.2481 4.19345,24.0226 12.04924,32.3235 7.85577,8.301 18.48863,12.5804 31.89863,12.8384 z"
       style="font-size:121.40453339px;font-style:normal;font-variant:normal;font-weight:normal;font-stretch:normal;line-height:125%;letter-spacing:0px;word-spacing:0px;fill:#000000;fill-opacity:1;stroke:none;font-family:Haas Grot Disp 95 Black;-inkscape-font-specification:Haas Grot Disp 95 Black"
       id="path4486"
       inkscape:connector-curvature="0"
       sodipodi:nodetypes="cscccccscccsccsccccccscsc" />
    <g
       id="g4522"
       transform="translate(9.1923879,224.85995)">
      <path
         d="m 17.719552,987.43514 25.251818,0 4.249104,-12.74731 29.379519,0 4.249104,12.74731 26.951463,0 -32.171791,-86.80312 -25.858833,0 z m 40.912801,-47.22576 c 0.773903,-2.32431 1.50232,-4.71696 2.185254,-7.17795 0.682848,-2.46088 1.047057,-3.79126 1.092626,-3.99112 l 0.242806,0 c 0.05307,0.19987 0.432454,1.53024 1.138152,3.99112 0.705608,2.461 1.41885,4.85364 2.139728,7.17795 l 5.463134,16.99642 -17.96764,0 z"
         style="font-size:121.40453339px;font-style:normal;font-variant:normal;font-weight:normal;font-stretch:normal;line-height:125%;letter-spacing:0px;word-spacing:0px;fill:#dcdcdc;fill-opacity:1;stroke:none;font-family:Haas Grot Disp 95 Black;-inkscape-font-specification:Haas Grot Disp 95 Black"
         id="path3953"
         inkscape:connector-curvature="0" />
      <path
         d="m 112.19056,987.43514 45.76892,0 c 4.47921,0 8.45009,-0.45526 11.91266,-1.36579 3.46245,-0.91052 6.49246,-2.2763 9.09005,-4.09734 3.12352,-2.19284 5.55664,-5.03063 7.29935,-8.51339 1.74256,-3.48273 2.62779,-7.5649 2.65569,-12.24652 -0.0304,-4.98255 -1.33551,-9.31259 -3.91524,-12.99012 -2.57989,-3.67746 -6.25233,-6.30785 -11.01732,-7.89119 l 0,-0.36421 c 3.63696,-1.55796 6.34829,-3.69263 8.134,-6.40401 1.78556,-2.71128 2.67584,-6.12067 2.67086,-10.2282 -0.0178,-3.5965 -0.74114,-6.84402 -2.17007,-9.74259 -1.42909,-2.89842 -3.45753,-5.35683 -6.08533,-7.37523 -2.29661,-1.7729 -5.0484,-3.14374 -8.2554,-4.11252 -3.20712,-0.96861 -6.93014,-1.45928 -11.16907,-1.47201 l -44.9191,0 z m 24.88761,-19.91009 0,-16.87501 17.96764,0 c 2.67334,4e-5 4.88388,0.6981 6.63163,2.0942 1.74764,1.39617 2.6531,3.49037 2.71639,6.2826 -0.0431,2.63802 -0.89793,4.70692 -2.56464,6.20673 -1.66681,1.49985 -3.88747,2.26368 -6.66198,2.29148 z m 0,-33.14301 0,-14.08274 15.66098,0 c 2.46848,0.0178 4.45139,0.65008 5.94875,1.89692 1.49725,1.24697 2.26613,3.00226 2.30665,5.26585 -0.0355,2.30672 -0.78411,4.03671 -2.24596,5.18998 -1.46194,1.15338 -3.42462,1.73004 -5.88804,1.72999 z"
         style="font-size:121.40453339px;font-style:normal;font-variant:normal;font-weight:normal;font-stretch:normal;line-height:125%;letter-spacing:0px;word-spacing:0px;fill:#dcdcdc;fill-opacity:1;stroke:none;font-family:Haas Grot Disp 95 Black;-inkscape-font-specification:Haas Grot Disp 95 Black"
         id="path3955"
         inkscape:connector-curvature="0" />
      <path
         d="m 236.35903,989.25605 c 6.28002,0.0177 11.80891,-0.80683 16.58668,-2.47359 4.77765,-1.66676 9.00146,-4.28198 12.67144,-7.84566 3.13363,-3.00471 5.69827,-6.55575 7.69391,-10.65311 1.99548,-4.09733 3.19433,-8.55889 3.59656,-13.38468 l -25.61602,0 c -0.44521,3.96586 -1.95263,7.20327 -4.52227,9.71224 -2.56975,2.50901 -6.08031,3.80398 -10.5317,3.88489 -5.69334,-0.12897 -10.11948,-2.42045 -13.27845,-6.87444 -3.15904,-4.45394 -4.76257,-10.29645 -4.81059,-17.52755 -0.008,-7.23102 1.46439,-13.07353 4.41603,-17.52756 2.95157,-4.45391 7.4283,-6.74539 13.4302,-6.87444 4.18077,0.11135 7.56487,1.40632 10.15233,3.88489 2.58734,2.47871 4.05935,5.47331 4.41603,8.98382 l 25.37322,0 c -0.55398,-5.5693 -2.11705,-10.66822 -4.68919,-15.29677 -2.5723,-4.62841 -6.10816,-8.51331 -10.60758,-11.65469 -3.18184,-2.19528 -6.83404,-3.87469 -10.95662,-5.03822 -4.1227,-1.16336 -8.56402,-1.75014 -13.32398,-1.76034 -13.25066,0.26313 -23.838,4.56281 -31.76205,12.89906 -7.92408,8.33641 -11.98602,19.13114 -12.18582,32.38425 0.17704,13.24812 4.19345,24.02263 12.04924,32.32353 7.85577,8.30093 18.48863,12.58039 31.89863,12.83837 z"
         style="font-size:121.40453339px;font-style:normal;font-variant:normal;font-weight:normal;font-stretch:normal;line-height:125%;letter-spacing:0px;word-spacing:0px;fill:#dcdcdc;fill-opacity:1;stroke:none;font-family:Haas Grot Disp 95 Black;-inkscape-font-specification:Haas Grot Disp 95 Black"
         id="path3957"
         inkscape:connector-curvature="0" />
    </g>
    <rect
       style="fill:#ffdab9;fill-opacity:1;stroke:none"
       id="rect3230"
       width="276.42368"
       height="31.112698"
       x="22.63961"
       y="961.78143" />
    <rect
       y="992.89417"
       x="49.731491"
       height="9.8994923"
       width="252.37466"
       id="rect4002"
       style="opacity:0.22624434;fill:#000000;fill-opacity:1;stroke:none" />
    <g
       style="font-size:250px;font-style:normal;font-variant:normal;font-weight:normal;font-stretch:normal;line-height:125%;letter-spacing:0px;word-spacing:0px;fill:#ffe4e1;fill-opacity:1;stroke:none;font-family:Haas Grot Disp 95 Black;-inkscape-font-specification:Haas Grot Disp 95 Black"
       id="text4004"
       transform="translate(0,4)">
      <path
         d="m 102.45973,910.42852 15.1498,0 0,40.27448 15.6748,0 0,-40.27448 15.3748,0 0,-13.34983 -46.1994,0 z"
         style="font-size:75px;fill:#ffe4e1"
         id="path4040"
         inkscape:connector-curvature="0" />
      <path
         d="m 178.0957,951.97799 c 8.42173,-0.15938 15.05289,-2.80309 19.8935,-7.93115 4.84051,-5.12805 7.30922,-11.78421 7.40615,-19.96849 -0.0969,-8.18736 -2.56564,-14.85602 -7.40615,-20.006 -4.84061,-5.14988 -11.47177,-7.80609 -19.8935,-7.96864 -8.41553,0.16255 -15.02169,2.81876 -19.81849,7.96864 -4.79682,5.14998 -7.24054,11.81864 -7.33116,20.006 0.0906,8.18428 2.53434,14.84044 7.33116,19.96849 4.7968,5.12806 11.40296,7.77177 19.81849,7.93115 z m 0.075,-12.52484 c -3.7531,-0.0922 -6.57806,-1.55778 -8.47489,-4.39682 -1.89687,-2.83901 -2.84685,-6.49833 -2.84996,-10.97798 0.003,-4.48273 0.95309,-8.15455 2.84996,-11.01549 1.89683,-2.86086 4.72179,-4.33896 8.47489,-4.43432 3.75305,0.0954 6.57801,1.57346 8.47489,4.43432 1.89682,2.86094 2.8468,6.53276 2.84997,11.01549 -0.003,4.47965 -0.95315,8.13897 -2.84997,10.97798 -1.89688,2.83904 -4.72184,4.30464 -8.47489,4.39682 z"
         style="font-size:75px;fill:#ffe4e1"
         id="path4042"
         inkscape:connector-curvature="0" />
      <path
         d="m 209.73548,950.703 15.6748,0 0,-17.32477 3.44995,-3.89995 13.64983,21.22472 18.22476,0 -21.14972,-32.02458 20.02474,-21.59973 -17.99977,0 -16.19979,17.54978 0,-17.54978 -15.6748,0 z"
         style="font-size:75px;fill:#ffe4e1"
         id="path4044"
         inkscape:connector-curvature="0" />
      <path
         d="m 288.69141,951.97799 c 8.42173,-0.15938 15.05288,-2.80309 19.89349,-7.93115 4.84051,-5.12805 7.30923,-11.78421 7.40616,-19.96849 -0.0969,-8.18736 -2.56565,-14.85602 -7.40616,-20.006 -4.84061,-5.14988 -11.47176,-7.80609 -19.89349,-7.96864 -8.41554,0.16255 -15.0217,2.81876 -19.8185,7.96864 -4.79682,5.14998 -7.24053,11.81864 -7.33115,20.006 0.0906,8.18428 2.53434,14.84044 7.33115,19.96849 4.7968,5.12806 11.40296,7.77177 19.8185,7.93115 z m 0.075,-12.52484 c -3.75311,-0.0922 -6.57807,-1.55778 -8.47489,-4.39682 -1.89687,-2.83901 -2.84686,-6.49833 -2.84997,-10.97798 0.003,-4.48273 0.9531,-8.15455 2.84997,-11.01549 1.89682,-2.86086 4.72178,-4.33896 8.47489,-4.43432 3.75304,0.0954 6.578,1.57346 8.47489,4.43432 1.89681,2.86094 2.8468,6.53276 2.84996,11.01549 -0.003,4.47965 -0.95315,8.13897 -2.84996,10.97798 -1.89689,2.83904 -4.72185,4.30464 -8.47489,4.39682 z"
         style="font-size:75px;fill:#ffe4e1"
         id="path4046"
         inkscape:connector-curvature="0" />
    </g>
    <rect
       y="851.28143"
       x="23.88961"
       height="37.112698"
       width="276.17368"
       id="rect4008"
       style="fill:#ffdab9;fill-opacity:1;stroke:none" />
    <rect
       style="opacity:0.20814478;fill:#87cefa;fill-opacity:1;stroke:none"
       id="rect4048"
       width="108"
       height="241"
       x="410"
       y="827.36218" />
  </g>
</svg>
