<?xml version="1.0" encoding="UTF-8" standalone="no"?>
<!-- Created with Inkscape (http://www.inkscape.org/) -->
<svg id="svg3938" xmlns:rdf="http://www.w3.org/1999/02/22-rdf-syntax-ns#" xmlns="http://www.w3.org/2000/svg" height="200" width="300" version="1.1" xmlns:cc="http://creativecommons.org/ns#" xmlns:dc="http://purl.org/dc/elements/1.1/">
 <metadata id="metadata3943">
  <rdf:RDF>
   <cc:Work rdf:about="">
    <dc:format>image/svg+xml</dc:format>
    <dc:type rdf:resource="http://purl.org/dc/dcmitype/StillImage"/>
    <dc:title/>
   </cc:Work>
  </rdf:RDF>
 </metadata>
 <g id="layer1" transform="translate(0,-852.36218)">
  <rect id="rect3970" height="200" width="300" y="852.36" x="0" fill="#800000"/>
  <path id="path4488" opacity="0.3804878" fill="#000" d="m19.242,989.31,25.751-25.497,14.545-40.41,16.457-22.55,40.795,28.838,5.2074-20.12,43.002,0.96862,13.876-1.6951,30.627,21.718,13.501-21.96,27.002,1.4529,19.626,4.7221,30.209,24.515,0.58592,114.02c-68.69-0.1097-132.38-1.094-201.07-1.1142z"/>
  <path id="path4482" fill="#000" d="m19.72,989.44,25.252,0,4.2491-12.747,29.38,0,2.238,10.739,2.0111,2.0087,26.951,0-32.172-86.803-2.0125-1.9445-23.846,1.9445-34.015,84.76zm40.913-47.226c0.7739-2.3243,1.5023-4.717,2.1853-7.178,0.68285-2.4609,1.0471-3.7913,1.0926-3.9911h0.24281c0.05307,0.19987,0.43245,1.5302,1.1382,3.9911,0.70561,2.461,1.4188,4.8536,2.1397,7.178l5.4631,16.996h-17.968z"/>
  <path id="path4484" fill="#000" d="m114.19,989.44,45.769,0c4.4792,0,8.4501-0.45526,11.913-1.3658,3.4624-0.91052,6.4925-2.2763,9.09-4.0973,3.1235-2.1928,5.5566-5.0306,7.2994-8.5134,1.7426-3.4827,2.6278-7.5649,2.6557-12.247-0.0304-4.9826-1.3355-9.3126-3.9152-12.99-2.5799-3.6775-6.2523-6.3078-11.017-7.8912v-0.36421c3.637-1.558,6.3483-3.6926,8.134-6.404,1.7856-2.7113,2.6758-6.1207,2.6709-10.228-0.0178-3.5965-0.74114-6.844-2.1701-9.7426-1.4291-2.8984-3.4575-5.3568-6.0853-7.3752-2.2966-1.7729-5.0484-3.1437-8.2554-4.1125-3.2071-0.96861-6.9301-1.4593-11.169-1.472h-44.919l-1.9804,84.76zm24.888-19.91,0-16.875,17.968,0c2.6733,0.00004,4.8839,0.6981,6.6316,2.0942,1.7476,1.3962,2.6531,3.4904,2.7164,6.2826-0.0431,2.638-0.89793,4.7069-2.5646,6.2067-1.6668,1.4998-3.8875,2.2637-6.662,2.2915zm0-33.143,0-14.083,15.661,0c2.4685,0.0178,4.4514,0.65008,5.9488,1.8969,1.4972,1.247,2.2661,3.0023,2.3066,5.2658-0.0355,2.3067-0.78411,4.0367-2.246,5.19-1.4619,1.1534-3.4246,1.73-5.888,1.73z"/>
  <path id="path4486" fill="#000" d="m238.36,991.26c6.28,0.0177,11.809-0.80683,16.587-2.4736,4.7776-1.6668,9.0015-4.282,12.671-7.8457,3.1336-3.0047,5.6983-6.5558,7.6939-10.653,1.9955-4.0973,3.1943-8.5589,3.5966-13.385l-2.0337-1.8526-23.582,1.8526c-0.44521,3.9659-1.9526,7.2033-4.5223,9.7122-2.5698,2.509-6.0803,3.804-10.532,3.8849-5.6933-0.12897-10.119-2.4204-13.278-6.8744-3.159-4.4539-4.7626-10.296-4.8106-17.528-0.008-7.231,1.4644-13.074,4.416-17.528,2.9516-4.4539,7.4283-6.7454,13.43-6.8744,4.1808,0.11135,7.5649,1.4063,10.152,3.8849,2.2341,2.1403,1.9756,4.0903,2.5466,6.9999,0.0903,0.46003,1.8208,1.8879,1.8694,1.9839h25.373c-0.55398-5.5693-2.117-10.668-4.6892-15.297-2.5723-4.6284-6.1082-8.5133-10.608-11.655-3.1818-2.1953-6.834-3.8747-10.957-5.0382-4.1227-1.1634-8.564-1.7501-13.324-1.7603-13.251,0.26313-23.838,4.5628-31.762,12.899-7.9241,8.3364-11.986,19.131-12.186,32.384,0.17704,13.248,4.1934,24.023,12.049,32.324,7.8558,8.3009,18.489,12.58,31.899,12.838z"/>
  <g id="g4522" fill="#dcdcdc">
   <path id="path3953" d="m17.72,987.44,25.252,0,4.2491-12.747,29.38,0,4.2491,12.747,26.951,0-32.172-86.803-25.859,0zm40.913-47.226c0.7739-2.3243,1.5023-4.717,2.1853-7.178,0.68285-2.4609,1.0471-3.7913,1.0926-3.9911h0.24281c0.05307,0.19987,0.43245,1.5302,1.1382,3.9911,0.70561,2.461,1.4188,4.8536,2.1397,7.178l5.4631,16.996h-17.968z"/>
   <path id="path3955" d="m112.19,987.44,45.769,0c4.4792,0,8.4501-0.45526,11.913-1.3658,3.4624-0.91052,6.4925-2.2763,9.09-4.0973,3.1235-2.1928,5.5566-5.0306,7.2994-8.5134,1.7426-3.4827,2.6278-7.5649,2.6557-12.247-0.0304-4.9826-1.3355-9.3126-3.9152-12.99-2.5799-3.6775-6.2523-6.3078-11.017-7.8912v-0.36421c3.637-1.558,6.3483-3.6926,8.134-6.404,1.7856-2.7113,2.6758-6.1207,2.6709-10.228-0.0178-3.5965-0.74114-6.844-2.1701-9.7426-1.4291-2.8984-3.4575-5.3568-6.0853-7.3752-2.2966-1.7729-5.0484-3.1437-8.2554-4.1125-3.2071-0.96861-6.9301-1.4593-11.169-1.472h-44.919zm24.888-19.91,0-16.875,17.968,0c2.6733,0.00004,4.8839,0.6981,6.6316,2.0942,1.7476,1.3962,2.6531,3.4904,2.7164,6.2826-0.0431,2.638-0.89793,4.7069-2.5646,6.2067-1.6668,1.4998-3.8875,2.2637-6.662,2.2915zm0-33.143,0-14.083,15.661,0c2.4685,0.0178,4.4514,0.65008,5.9488,1.8969,1.4972,1.247,2.2661,3.0023,2.3066,5.2658-0.0355,2.3067-0.78411,4.0367-2.246,5.19-1.4619,1.1534-3.4246,1.73-5.888,1.73z"/>
   <path id="path3957" d="m236.36,989.26c6.28,0.0177,11.809-0.80683,16.587-2.4736,4.7776-1.6668,9.0015-4.282,12.671-7.8457,3.1336-3.0047,5.6983-6.5558,7.6939-10.653,1.9955-4.0973,3.1943-8.5589,3.5966-13.385h-25.616c-0.44521,3.9659-1.9526,7.2033-4.5223,9.7122-2.5698,2.509-6.0803,3.804-10.532,3.8849-5.6933-0.12897-10.119-2.4204-13.278-6.8744-3.159-4.4539-4.7626-10.296-4.8106-17.528-0.008-7.231,1.4644-13.074,4.416-17.528,2.9516-4.4539,7.4283-6.7454,13.43-6.8744,4.1808,0.11135,7.5649,1.4063,10.152,3.8849,2.5873,2.4787,4.0594,5.4733,4.416,8.9838h25.373c-0.55398-5.5693-2.117-10.668-4.6892-15.297-2.5723-4.6284-6.1082-8.5133-10.608-11.655-3.1818-2.1953-6.834-3.8747-10.957-5.0382-4.1227-1.1634-8.564-1.7501-13.324-1.7603-13.251,0.26313-23.838,4.5628-31.762,12.899-7.9241,8.3364-11.986,19.131-12.186,32.384,0.17704,13.248,4.1934,24.023,12.049,32.324,7.8558,8.3009,18.489,12.58,31.899,12.838z"/>
  </g>
 </g>
</svg>
