<?xml version="1.0" encoding="UTF-8" standalone="no"?>
<!-- Created with Inkscape (http://www.inkscape.org/) -->

<svg
   xmlns:dc="http://purl.org/dc/elements/1.1/"
   xmlns:cc="http://creativecommons.org/ns#"
   xmlns:rdf="http://www.w3.org/1999/02/22-rdf-syntax-ns#"
   xmlns:svg="http://www.w3.org/2000/svg"
   xmlns="http://www.w3.org/2000/svg"
   xmlns:sodipodi="http://sodipodi.sourceforge.net/DTD/sodipodi-0.dtd"
   xmlns:inkscape="http://www.inkscape.org/namespaces/inkscape"
   width="300"
   height="200"
   id="svg3938"
   version="1.1"
   inkscape:version="0.48.4 r9939"
   sodipodi:docname="htimbul.svg">
  <defs
     id="defs3940" />
  <sodipodi:namedview
     id="base"
     pagecolor="#ffffff"
     bordercolor="#666666"
     borderopacity="1.0"
     inkscape:pageopacity="0.0"
     inkscape:pageshadow="2"
     inkscape:zoom="1.4142136"
     inkscape:cx="173.17276"
     inkscape:cy="82.675917"
     inkscape:document-units="px"
     inkscape:current-layer="layer1"
     showgrid="false"
     inkscape:window-width="1024"
     inkscape:window-height="717"
     inkscape:window-x="-4"
     inkscape:window-y="-4"
     inkscape:window-maximized="1" />
  <metadata
     id="metadata3943">
    <rdf:RDF>
      <cc:Work
         rdf:about="">
        <dc:format>image/svg+xml</dc:format>
        <dc:type
           rdf:resource="http://purl.org/dc/dcmitype/StillImage" />
        <dc:title></dc:title>
      </cc:Work>
    </rdf:RDF>
  </metadata>
  <g
     inkscape:label="Layer 1"
     inkscape:groupmode="layer"
     id="layer1"
     transform="translate(0,-852.36218)">
    <rect
       style="fill:#800000;fill-opacity:1;stroke:none"
       id="rect3970"
       width="300"
       height="200"
       x="0"
       y="852.36218" />
    <path
       style="opacity:0.3804878;fill:#000000;fill-opacity:1;stroke:none"
       d="m 19.242108,989.31223 25.751424,-25.49709 14.544968,-40.4105 16.456763,-22.55035 40.795177,28.83808 5.20739,-20.12042 43.0024,0.96862 13.87578,-1.6951 30.62671,21.71818 13.50075,-21.96033 27.00151,1.45294 19.62609,4.72206 30.20942,24.51495 0.58592,114.01693 c -68.6895,-0.1097 -132.37912,-1.094 -201.06869,-1.1142 z"
       id="path4488"
       inkscape:connector-curvature="0"
       sodipodi:nodetypes="cccccccccccccccc" />
    <path
       d="m 19.719552,989.43514 25.251818,0 4.249104,-12.74731 29.379519,0 2.237962,10.73859 2.011142,2.00872 26.951463,0 -32.171791,-86.80312 -2.012537,-1.94454 -23.846296,1.94454 -34.015467,84.76045 z m 40.912801,-47.22576 c 0.773903,-2.32431 1.50232,-4.71696 2.185254,-7.17795 0.682848,-2.46088 1.047057,-3.79126 1.092626,-3.99112 l 0.242806,0 c 0.05307,0.19987 0.432454,1.53024 1.138152,3.99112 0.705608,2.461 1.41885,4.85364 2.139728,7.17795 l 5.463134,16.99642 -17.96764,0 z"
       style="font-size:121.40453339px;font-style:normal;font-variant:normal;font-weight:normal;font-stretch:normal;line-height:125%;letter-spacing:0px;word-spacing:0px;fill:#000000;fill-opacity:1;stroke:none;font-family:Haas Grot Disp 95 Black;-inkscape-font-specification:Haas Grot Disp 95 Black"
       id="path4482"
       inkscape:connector-curvature="0"
       sodipodi:nodetypes="ccccccccccccscccccccs" />
    <path
       d="m 114.19056,989.43514 45.76892,0 c 4.47921,0 8.45009,-0.45526 11.91266,-1.36579 3.46245,-0.91052 6.49246,-2.2763 9.09005,-4.09734 3.12352,-2.19284 5.55664,-5.03063 7.29935,-8.51339 1.74256,-3.48273 2.62779,-7.5649 2.65569,-12.24652 -0.0304,-4.98255 -1.33551,-9.31259 -3.91524,-12.99012 -2.57989,-3.67746 -6.25233,-6.30785 -11.01732,-7.89119 l 0,-0.36421 c 3.63696,-1.55796 6.34829,-3.69263 8.134,-6.40401 1.78556,-2.71128 2.67584,-6.12067 2.67086,-10.2282 -0.0178,-3.5965 -0.74114,-6.84402 -2.17007,-9.74259 -1.42909,-2.89842 -3.45753,-5.35683 -6.08533,-7.37523 -2.29661,-1.7729 -5.0484,-3.14374 -8.2554,-4.11252 -3.20712,-0.96861 -6.93014,-1.45928 -11.16907,-1.47201 l -44.9191,0 -1.98041,84.75997 z m 24.88761,-19.91009 0,-16.87501 17.96764,0 c 2.67334,4e-5 4.88388,0.6981 6.63163,2.0942 1.74764,1.39617 2.6531,3.49037 2.71639,6.2826 -0.0431,2.63802 -0.89793,4.70692 -2.56464,6.20673 -1.66681,1.49985 -3.88747,2.26368 -6.66198,2.29148 z m 0,-33.14301 0,-14.08274 15.66098,0 c 2.46848,0.0178 4.45139,0.65008 5.94875,1.89692 1.49725,1.24697 2.26613,3.00226 2.30665,5.26585 -0.0355,2.30672 -0.78411,4.03671 -2.24596,5.18998 -1.46194,1.15338 -3.42462,1.73004 -5.88804,1.72999 z"
       style="font-size:121.40453339px;font-style:normal;font-variant:normal;font-weight:normal;font-stretch:normal;line-height:125%;letter-spacing:0px;word-spacing:0px;fill:#000000;fill-opacity:1;stroke:none;font-family:Haas Grot Disp 95 Black;-inkscape-font-specification:Haas Grot Disp 95 Black"
       id="path4484"
       inkscape:connector-curvature="0"
       sodipodi:nodetypes="cssccccccccccccccccccccccccccccccc" />
    <path
       d="m 238.35903,991.25605 c 6.28002,0.0177 11.80891,-0.80683 16.58668,-2.47359 4.77765,-1.66676 9.00146,-4.28198 12.67144,-7.84566 3.13363,-3.00471 5.69827,-6.55575 7.69391,-10.65311 1.99548,-4.09733 3.19433,-8.55889 3.59656,-13.38468 l -2.03368,-1.85264 -23.58234,1.85264 c -0.44521,3.96586 -1.95263,7.20327 -4.52227,9.71224 -2.56975,2.50901 -6.08031,3.80398 -10.5317,3.88489 -5.69334,-0.12897 -10.11948,-2.42045 -13.27845,-6.87444 -3.15904,-4.45394 -4.76257,-10.29645 -4.81059,-17.52755 -0.008,-7.23102 1.46439,-13.07353 4.41603,-17.52756 2.95157,-4.45391 7.4283,-6.74539 13.4302,-6.87444 4.18077,0.11135 7.56487,1.40632 10.15233,3.88489 2.23411,2.14031 1.97565,4.09031 2.54659,6.99993 0.0903,0.46003 1.82075,1.88793 1.86944,1.98389 l 25.37322,0 c -0.55398,-5.5693 -2.11705,-10.66822 -4.68919,-15.29677 -2.5723,-4.62841 -6.10816,-8.51331 -10.60758,-11.65469 -3.18184,-2.19528 -6.83404,-3.87469 -10.95662,-5.03822 -4.1227,-1.16336 -8.56402,-1.75014 -13.32398,-1.76034 -13.25066,0.26313 -23.838,4.56281 -31.76205,12.89906 -7.92408,8.33641 -11.98602,19.13114 -12.18582,32.38425 0.17704,13.24812 4.19345,24.02263 12.04924,32.32353 7.85577,8.30093 18.48863,12.58039 31.89863,12.83837 z"
       style="font-size:121.40453339px;font-style:normal;font-variant:normal;font-weight:normal;font-stretch:normal;line-height:125%;letter-spacing:0px;word-spacing:0px;fill:#000000;fill-opacity:1;stroke:none;font-family:Haas Grot Disp 95 Black;-inkscape-font-specification:Haas Grot Disp 95 Black"
       id="path4486"
       inkscape:connector-curvature="0"
       sodipodi:nodetypes="cscccccscccsccsccccccscsc" />
    <g
       id="g4522">
      <path
         d="m 17.719552,987.43514 25.251818,0 4.249104,-12.74731 29.379519,0 4.249104,12.74731 26.951463,0 -32.171791,-86.80312 -25.858833,0 z m 40.912801,-47.22576 c 0.773903,-2.32431 1.50232,-4.71696 2.185254,-7.17795 0.682848,-2.46088 1.047057,-3.79126 1.092626,-3.99112 l 0.242806,0 c 0.05307,0.19987 0.432454,1.53024 1.138152,3.99112 0.705608,2.461 1.41885,4.85364 2.139728,7.17795 l 5.463134,16.99642 -17.96764,0 z"
         style="font-size:121.40453339000001000px;font-style:normal;font-variant:normal;font-weight:normal;font-stretch:normal;line-height:125%;letter-spacing:0px;word-spacing:0px;fill:#dcdcdc;fill-opacity:1;stroke:none;font-family:Haas Grot Disp 95 Black;-inkscape-font-specification:Haas Grot Disp 95 Black"
         id="path3953"
         inkscape:connector-curvature="0" />
      <path
         d="m 112.19056,987.43514 45.76892,0 c 4.47921,0 8.45009,-0.45526 11.91266,-1.36579 3.46245,-0.91052 6.49246,-2.2763 9.09005,-4.09734 3.12352,-2.19284 5.55664,-5.03063 7.29935,-8.51339 1.74256,-3.48273 2.62779,-7.5649 2.65569,-12.24652 -0.0304,-4.98255 -1.33551,-9.31259 -3.91524,-12.99012 -2.57989,-3.67746 -6.25233,-6.30785 -11.01732,-7.89119 l 0,-0.36421 c 3.63696,-1.55796 6.34829,-3.69263 8.134,-6.40401 1.78556,-2.71128 2.67584,-6.12067 2.67086,-10.2282 -0.0178,-3.5965 -0.74114,-6.84402 -2.17007,-9.74259 -1.42909,-2.89842 -3.45753,-5.35683 -6.08533,-7.37523 -2.29661,-1.7729 -5.0484,-3.14374 -8.2554,-4.11252 -3.20712,-0.96861 -6.93014,-1.45928 -11.16907,-1.47201 l -44.9191,0 z m 24.88761,-19.91009 0,-16.87501 17.96764,0 c 2.67334,4e-5 4.88388,0.6981 6.63163,2.0942 1.74764,1.39617 2.6531,3.49037 2.71639,6.2826 -0.0431,2.63802 -0.89793,4.70692 -2.56464,6.20673 -1.66681,1.49985 -3.88747,2.26368 -6.66198,2.29148 z m 0,-33.14301 0,-14.08274 15.66098,0 c 2.46848,0.0178 4.45139,0.65008 5.94875,1.89692 1.49725,1.24697 2.26613,3.00226 2.30665,5.26585 -0.0355,2.30672 -0.78411,4.03671 -2.24596,5.18998 -1.46194,1.15338 -3.42462,1.73004 -5.88804,1.72999 z"
         style="font-size:121.40453339000001000px;font-style:normal;font-variant:normal;font-weight:normal;font-stretch:normal;line-height:125%;letter-spacing:0px;word-spacing:0px;fill:#dcdcdc;fill-opacity:1;stroke:none;font-family:Haas Grot Disp 95 Black;-inkscape-font-specification:Haas Grot Disp 95 Black"
         id="path3955"
         inkscape:connector-curvature="0" />
      <path
         d="m 236.35903,989.25605 c 6.28002,0.0177 11.80891,-0.80683 16.58668,-2.47359 4.77765,-1.66676 9.00146,-4.28198 12.67144,-7.84566 3.13363,-3.00471 5.69827,-6.55575 7.69391,-10.65311 1.99548,-4.09733 3.19433,-8.55889 3.59656,-13.38468 l -25.61602,0 c -0.44521,3.96586 -1.95263,7.20327 -4.52227,9.71224 -2.56975,2.50901 -6.08031,3.80398 -10.5317,3.88489 -5.69334,-0.12897 -10.11948,-2.42045 -13.27845,-6.87444 -3.15904,-4.45394 -4.76257,-10.29645 -4.81059,-17.52755 -0.008,-7.23102 1.46439,-13.07353 4.41603,-17.52756 2.95157,-4.45391 7.4283,-6.74539 13.4302,-6.87444 4.18077,0.11135 7.56487,1.40632 10.15233,3.88489 2.58734,2.47871 4.05935,5.47331 4.41603,8.98382 l 25.37322,0 c -0.55398,-5.5693 -2.11705,-10.66822 -4.68919,-15.29677 -2.5723,-4.62841 -6.10816,-8.51331 -10.60758,-11.65469 -3.18184,-2.19528 -6.83404,-3.87469 -10.95662,-5.03822 -4.1227,-1.16336 -8.56402,-1.75014 -13.32398,-1.76034 -13.25066,0.26313 -23.838,4.56281 -31.76205,12.89906 -7.92408,8.33641 -11.98602,19.13114 -12.18582,32.38425 0.17704,13.24812 4.19345,24.02263 12.04924,32.32353 7.85577,8.30093 18.48863,12.58039 31.89863,12.83837 z"
         style="font-size:121.40453339000001000px;font-style:normal;font-variant:normal;font-weight:normal;font-stretch:normal;line-height:125%;letter-spacing:0px;word-spacing:0px;fill:#dcdcdc;fill-opacity:1;stroke:none;font-family:Haas Grot Disp 95 Black;-inkscape-font-specification:Haas Grot Disp 95 Black"
         id="path3957"
         inkscape:connector-curvature="0" />
    </g>
  </g>
</svg>
