<?xml version="1.0" encoding="UTF-8" standalone="no"?>
<!-- Created with Inkscape (http://www.inkscape.org/) -->

<svg
   xmlns:dc="http://purl.org/dc/elements/1.1/"
   xmlns:cc="http://creativecommons.org/ns#"
   xmlns:rdf="http://www.w3.org/1999/02/22-rdf-syntax-ns#"
   xmlns:svg="http://www.w3.org/2000/svg"
   xmlns="http://www.w3.org/2000/svg"
   xmlns:sodipodi="http://sodipodi.sourceforge.net/DTD/sodipodi-0.dtd"
   xmlns:inkscape="http://www.inkscape.org/namespaces/inkscape"
   width="300"
   height="200"
   id="svg2"
   version="1.1"
   inkscape:version="0.48.2 r9819"
   sodipodi:docname="konstruksi.svg">
  <defs
     id="defs4" />
  <sodipodi:namedview
     id="base"
     pagecolor="#ffffff"
     bordercolor="#666666"
     borderopacity="1.0"
     inkscape:pageopacity="0.0"
     inkscape:pageshadow="2"
     inkscape:zoom="5.6568542"
     inkscape:cx="148.69174"
     inkscape:cy="118.61856"
     inkscape:document-units="px"
     inkscape:current-layer="layer1"
     showgrid="false"
     inkscape:window-width="1920"
     inkscape:window-height="1005"
     inkscape:window-x="0"
     inkscape:window-y="22"
     inkscape:window-maximized="1" />
  <metadata
     id="metadata7">
    <rdf:RDF>
      <cc:Work
         rdf:about="">
        <dc:format>image/svg+xml</dc:format>
        <dc:type
           rdf:resource="http://purl.org/dc/dcmitype/StillImage" />
        <dc:title></dc:title>
      </cc:Work>
    </rdf:RDF>
  </metadata>
  <g
     inkscape:label="Layer 1"
     inkscape:groupmode="layer"
     id="layer1"
     transform="translate(0,-852.36218)">
    <rect
       style="opacity:1;fill:#fffda1;fill-opacity:1;fill-rule:nonzero;stroke:none"
       id="rect3894"
       width="300.83234"
       height="200.23781"
       x="-0.23781213"
       y="-0.23781213"
       transform="translate(0,852.36218)" />
    <rect
       style="opacity:0.30172412;fill:#000000;fill-opacity:1;fill-rule:nonzero;stroke:none"
       id="rect3900"
       width="79.191437"
       height="2.1403091"
       x="221.40309"
       y="1024.5382" />
    <rect
       style="fill:#ffffff;fill-opacity:1;fill-rule:nonzero;stroke:none"
       id="rect3896"
       width="97.26516"
       height="75.386444"
       x="61.831154"
       y="945.58453" />
    <rect
       style="opacity:0.42241378;fill:#dcdcdc;fill-opacity:1;fill-rule:nonzero;stroke:none"
       id="rect3779"
       width="57.312721"
       height="36.385254"
       x="61.831154"
       y="984.58569" />
    <rect
       style="fill:#e9d3a9;fill-opacity:1;fill-rule:nonzero;stroke:none"
       id="rect3773"
       width="92.984543"
       height="87.277054"
       x="158.6207"
       y="935.35864" />
    <rect
       style="fill:#5d0d00;fill-opacity:1;fill-rule:nonzero;stroke:none"
       id="rect3855"
       width="21.878716"
       height="33.293701"
       x="178.12129"
       y="956.04828" />
    <rect
       style="opacity:0.29741378;fill:#000000;fill-opacity:1;fill-rule:nonzero;stroke:none"
       id="rect3788"
       width="49.227112"
       height="11.17717"
       x="159.80975"
       y="941.30396" />
    <rect
       style="fill:#f5deb3;fill-opacity:1;fill-rule:nonzero;stroke:none"
       id="rect3786"
       width="44.470871"
       height="86.80143"
       x="206.89655"
       y="935.83423" />
    <rect
       y="943.44427"
       x="59.453041"
       height="78.715813"
       width="2.6159334"
       id="rect3767"
       style="fill:#c0c0c0;fill-opacity:1;fill-rule:nonzero;stroke:none" />
    <rect
       style="fill:#c0c0c0;fill-opacity:1;fill-rule:nonzero;stroke:none"
       id="rect3759"
       width="100.35672"
       height="2.8537455"
       x="60.16647"
       y="1020.0198" />
    <rect
       style="fill:#c0c0c0;fill-opacity:1;fill-rule:nonzero;stroke:none"
       id="rect3761"
       width="2.8537455"
       height="78.715813"
       x="157.90726"
       y="943.91986" />
    <rect
       style="fill:#c0c0c0;fill-opacity:1;fill-rule:nonzero;stroke:none"
       id="rect3763"
       width="2.6159334"
       height="78.715813"
       x="117.24139"
       y="943.68207" />
    <rect
       style="fill:#c0c0c0;fill-opacity:1;fill-rule:nonzero;stroke:none"
       id="rect3765"
       width="99.881096"
       height="3.0915577"
       x="60.404282"
       y="943.20642" />
    <path
       style="fill:#ca5454;fill-opacity:1;stroke:none"
       d="m 157.19382,943.20641 110.34483,0.23782 -35.61647,-57.88579 -74.14084,0.014 z"
       id="path3771"
       inkscape:connector-curvature="0"
       sodipodi:nodetypes="ccccc" />
    <rect
       y="943.20648"
       x="206.89656"
       height="11.17717"
       width="44.708683"
       id="rect3790"
       style="opacity:0.29741378;fill:#000000;fill-opacity:1;fill-rule:nonzero;stroke:none" />
    <rect
       style="fill:#a52a2a;fill-opacity:1;fill-rule:nonzero;stroke:none"
       id="rect3792"
       width="101.07015"
       height="3.5671818"
       x="160.52318"
       y="942.73083" />
    <rect
       style="fill:#696969;fill-opacity:1;fill-rule:nonzero;stroke:none"
       id="rect3781"
       width="2.3781202"
       height="9.9881096"
       x="155.52914"
       y="981.25641" />
    <path
       style="fill:#a9a9a9;fill-opacity:1;fill-rule:nonzero;stroke:none"
       d="m 157.43092,876.05968 0,1.22629 31.45669,0 0,15.32856 -31.45669,0 0,1.22628 31.45669,0 0,13.00507 -31.45669,0 0,1.22629 31.45669,0 0,13.26323 -31.45669,0 0,1.22629 31.45669,0 0,13.00508 -31.45669,0 0,1.22628 31.45669,0 0,89.64795 1.20865,0 0,-89.64795 28.81675,0 0,89.64795 1.20865,0 0,-89.64795 30.97959,0 0,89.64795 1.20865,0 0,-149.15503 0.25445,0 0,-1.22629 -95.13343,0 z m 32.66534,1.22629 28.81675,0 0,15.32856 -28.81675,0 0,-15.32856 z m 30.0254,0 30.97959,0 0,15.32856 -30.97959,0 0,-15.32856 z m -30.0254,16.55484 28.81675,0 0,13.00507 -28.81675,0 0,-13.00507 z m 30.0254,0 30.97959,0 0,13.00507 -30.97959,0 0,-13.00507 z m -30.0254,14.23136 28.81675,0 0,13.26323 -28.81675,0 0,-13.26323 z m 30.0254,0 30.97959,0 0,13.26323 -30.97959,0 0,-13.26323 z m -30.0254,14.48952 28.81675,0 0,13.00508 -28.81675,0 0,-13.00508 z m 30.0254,0 30.97959,0 0,13.00508 -30.97959,0 0,-13.00508 z"
       id="rect3827"
       inkscape:connector-curvature="0" />
    <rect
       style="fill:#f44a4a;fill-opacity:1;fill-rule:nonzero;stroke:none"
       id="rect3755"
       width="54.696777"
       height="34.72057"
       x="157.19382"
       y="871.625" />
    <rect
       y="871.625"
       x="52.794292"
       height="73.008324"
       width="108.44232"
       id="rect3851"
       style="fill:#f44a4a;fill-opacity:1;fill-rule:nonzero;stroke:none" />
    <rect
       y="934.88306"
       x="52.794292"
       height="9.7502775"
       width="108.44233"
       id="rect3775"
       style="fill:#d34141;fill-opacity:1;fill-rule:nonzero;stroke:none" />
    <path
       style="opacity:0.15;fill:#000000;fill-opacity:1;fill-rule:nonzero;stroke:none"
       d="M 129.75 71.28125 L 127.6875 72.8125 L 129.03125 73.75 L 127.28125 74.71875 L 125.625 73.6875 L 123.1875 74.21875 L 121.9375 73.53125 L 120.8125 74.375 L 119.78125 73.625 L 118.0625 73.6875 L 117.0625 79.28125 L 129.75 92.1875 L 161.1875 92.21875 L 161.21875 75.15625 L 159.53125 73.5 L 158.21875 74.03125 L 157.65625 73.625 L 155.65625 74.9375 L 153.78125 73.65625 L 149.71875 75.34375 L 147.5625 73.46875 L 146.75 74.5625 L 144.5 73.5625 L 143.40625 74.21875 L 142.4375 73.625 L 142.03125 73.9375 L 138.5625 71.3125 L 136.46875 72.84375 L 137.71875 73.78125 L 136.8125 74.34375 L 136.0625 74.78125 L 134.59375 73.8125 L 133.78125 74.71875 L 132.53125 74 L 133.3125 73.9375 L 129.75 71.28125 z M 131.09375 74.09375 L 130.5 74.5 L 130.03125 74.15625 L 131.09375 74.09375 z "
       transform="translate(0,852.36218)"
       id="rect3906" />
    <rect
       style="fill:#c22d2d;fill-opacity:1;fill-rule:nonzero;stroke:none;opacity:0.97413793000000004"
       id="rect3757"
       width="9.5124855"
       height="155.29132"
       x="51.129608"
       y="871.38721" />
    <rect
       style="fill:#ff4c4c;fill-opacity:1;fill-rule:nonzero;stroke:none"
       id="rect2985"
       width="14.268728"
       height="155.29132"
       x="44.233055"
       y="871.38715" />
    <rect
       style="fill:#696969;fill-opacity:1;fill-rule:nonzero;stroke:none"
       id="rect3777"
       width="199.76219"
       height="4.7562423"
       x="52.556484"
       y="1021.9222" />
    <g
       style="font-size:11.11405754px;font-style:normal;font-variant:normal;font-weight:normal;font-stretch:normal;line-height:125%;letter-spacing:0px;word-spacing:0px;fill:#f0fff0;fill-opacity:1;stroke:none;font-family:Haas Grot Disp;-inkscape-font-specification:Haas Grot Disp"
       id="text3902">
      <path
         d="m 117.0425,931.64246 1.77825,0 0.60016,-3.10083 c 0.14449,-0.77798 0.52236,-1.28923 1.10029,-1.28923 0.52236,0 0.70019,0.389 0.57794,1.00027 l -0.65573,3.38979 1.77824,0 0.60016,-3.10083 c 0.14449,-0.80021 0.52237,-1.28923 1.1003,-1.28923 0.52236,0 0.70018,0.37788 0.57793,1.00027 l -0.65573,3.38979 1.77825,0 0.66684,-3.45648 c 0.28897,-1.46705 -0.33342,-2.40063 -1.53374,-2.40063 -0.73353,0 -1.36703,0.31119 -1.88939,1.05583 l -0.0222,0 c -0.20005,-0.6335 -0.64461,-1.05583 -1.40037,-1.05583 -0.77798,0 -1.28923,0.4001 -1.72268,1.02249 l -0.0333,0 0.16671,-0.85578 -1.71156,0 -1.1003,5.6904"
         style="font-style:italic;font-weight:bold;fill:#f0fff0;-inkscape-font-specification:Haas Grot Disp Bold Italic"
         id="path3919" />
      <path
         d="m 126.4417,931.64246 1.77825,0 1.10029,-5.6904 -1.77825,0 -1.10029,5.6904 m 1.25589,-6.4795 1.77824,0 0.27786,-1.46706 -1.77825,0 -0.27785,1.46706"
         style="font-style:italic;font-weight:bold;fill:#f0fff0;-inkscape-font-specification:Haas Grot Disp Bold Italic"
         id="path3921" />
      <path
         d="m 129.06826,931.64246 1.77825,0 0.60016,-3.12305 c 0.14448,-0.7113 0.58904,-1.26701 1.20032,-1.26701 0.58904,0 0.7891,0.40011 0.66684,1.0225 l -0.65573,3.36756 1.77825,0 0.67796,-3.50093 c 0.27785,-1.46706 -0.38899,-2.35618 -1.53374,-2.35618 -0.81133,0 -1.37815,0.41122 -1.83382,1.06695 l -0.0333,0 0.17782,-0.90024 -1.72268,0 -1.10029,5.6904"
         style="font-style:italic;font-weight:bold;fill:#f0fff0;-inkscape-font-specification:Haas Grot Disp Bold Italic"
         id="path3923" />
      <path
         d="m 135.2548,931.64246 1.77825,0 1.10029,-5.6904 -1.77825,0 -1.10029,5.6904 m 1.25589,-6.4795 1.77825,0 0.27785,-1.46706 -1.77825,0 -0.27785,1.46706"
         style="font-style:italic;font-weight:bold;fill:#f0fff0;-inkscape-font-specification:Haas Grot Disp Bold Italic"
         id="path3925" />
      <path
         d="m 139.59623,931.64246 1.77825,0 0.60015,-3.10083 c 0.14449,-0.77798 0.52237,-1.28923 1.1003,-1.28923 0.52236,0 0.70018,0.389 0.57793,1.00027 l -0.65573,3.38979 1.77825,0 0.60016,-3.10083 c 0.14448,-0.80021 0.52236,-1.28923 1.10029,-1.28923 0.52236,0 0.70018,0.37788 0.57793,1.00027 l -0.65573,3.38979 1.77825,0 0.66684,-3.45648 c 0.28897,-1.46705 -0.33342,-2.40063 -1.53374,-2.40063 -0.73352,0 -1.36703,0.31119 -1.88939,1.05583 l -0.0222,0 c -0.20005,-0.6335 -0.64461,-1.05583 -1.40037,-1.05583 -0.77798,0 -1.28923,0.4001 -1.72268,1.02249 l -0.0333,0 0.16671,-0.85578 -1.71156,0 -1.10029,5.6904"
         style="font-style:italic;font-weight:bold;fill:#f0fff0;-inkscape-font-specification:Haas Grot Disp Bold Italic"
         id="path3927" />
      <path
         d="m 150.85147,931.78694 c 0.66684,0 1.17809,-0.32231 1.55596,-0.76687 l 0.0222,0 c 0,0.24451 0.0222,0.48902 0.0889,0.62239 l 1.71156,0 0,-0.0778 c -0.10003,-0.12226 -0.12225,-0.37788 -0.0333,-0.81133 l 0.51124,-2.62292 c 0.17783,-0.93358 -0.0778,-1.53374 -0.54458,-1.87827 -0.44457,-0.34454 -1.06695,-0.45568 -1.72268,-0.45568 -1.656,0 -2.54512,0.77799 -2.75629,1.95608 l 1.656,0 c 0.12225,-0.50014 0.46679,-0.74465 1.01137,-0.74465 0.47791,0 0.7113,0.22229 0.7113,0.54459 0,0.55571 -0.45567,0.62239 -1.57819,0.70019 -1.38926,0.10002 -2.42287,0.50013 -2.42287,1.88939 0,1.06695 0.80022,1.64488 1.78937,1.64488 m 0.66684,-1.15586 c -0.43345,0 -0.73353,-0.20006 -0.73353,-0.64462 0,-0.65573 0.6335,-0.68907 1.08918,-0.76687 0.42233,-0.0667 0.7113,-0.13337 0.96692,-0.25562 l -0.13337,0.70018 c -0.13336,0.62239 -0.57793,0.96693 -1.1892,0.96693"
         style="font-style:italic;font-weight:bold;fill:#f0fff0;-inkscape-font-specification:Haas Grot Disp Bold Italic"
         id="path3929" />
      <path
         d="m 154.85635,931.64246 1.77825,0 0.4779,-2.48955 c 0.26674,-1.36703 0.95581,-1.81159 2.10056,-1.64488 l 0.0333,0 0.31119,-1.60043 c -0.0667,-0.0222 -0.21116,-0.0444 -0.4001,-0.0444 -0.7113,0 -1.23366,0.35565 -1.64488,1.02249 l -0.0333,0 0.18894,-0.93358 -1.71156,0 -1.10029,5.6904"
         style="font-style:italic;font-weight:bold;fill:#f0fff0;-inkscape-font-specification:Haas Grot Disp Bold Italic"
         id="path3931" />
    </g>
    <path
       style="opacity:0.15517243;fill:#000000;fill-opacity:1;fill-rule:nonzero;stroke:none"
       d="m 60.90625,18.9375 -0.5,0.5 0,108.625 0.46875,0.46875 -0.237812,-36.274376 73.707342,-0.05945 z"
       transform="translate(0,852.36218)"
       id="path3864"
       inkscape:connector-curvature="0"
       sodipodi:nodetypes="ccccccc" />
    <path
       style="opacity:0.15517243;fill:#000000;fill-opacity:1;fill-rule:nonzero;stroke:none"
       d="m 211.875,33.8125 0,20.15625 -50.57086,0 -0.11891,36.465703 L 268.4375,90.375 z M 261.75,219.5 l 4.53125,4.53125 4.53125,-4.53125 z"
       transform="translate(0,852.36218)"
       id="rect3869"
       inkscape:connector-curvature="0"
       sodipodi:nodetypes="cccccccccc" />
  </g>
</svg>
