<?xml version="1.0" encoding="UTF-8" standalone="no"?>
<!-- Created with Inkscape (http://www.inkscape.org/) -->

<svg
   xmlns:dc="http://purl.org/dc/elements/1.1/"
   xmlns:cc="http://creativecommons.org/ns#"
   xmlns:rdf="http://www.w3.org/1999/02/22-rdf-syntax-ns#"
   xmlns:svg="http://www.w3.org/2000/svg"
   xmlns="http://www.w3.org/2000/svg"
   xmlns:xlink="http://www.w3.org/1999/xlink"
   xmlns:sodipodi="http://sodipodi.sourceforge.net/DTD/sodipodi-0.dtd"
   xmlns:inkscape="http://www.inkscape.org/namespaces/inkscape"
   width="300"
   height="200"
   id="svg2"
   version="1.1"
   inkscape:version="0.48.4 r9939"
   sodipodi:docname="neonbox.svg">
  <defs
     id="defs4">
    <linearGradient
       inkscape:collect="always"
       id="linearGradient3835">
      <stop
         style="stop-color:#2d2d2d;stop-opacity:1;"
         offset="0"
         id="stop3837" />
      <stop
         style="stop-color:#2d2d2d;stop-opacity:0"
         offset="1"
         id="stop3839" />
    </linearGradient>
    <linearGradient
       inkscape:collect="always"
       xlink:href="#linearGradient3835"
       id="linearGradient3833"
       x1="205.94595"
       y1="147.56757"
       x2="329.72974"
       y2="251.35135"
       gradientUnits="userSpaceOnUse" />
    <filter
       inkscape:collect="always"
       id="filter3932"
       x="-0.60248963"
       width="2.2049793"
       y="-0.60248963"
       height="2.2049793">
      <feGaussianBlur
         inkscape:collect="always"
         stdDeviation="27.336573"
         id="feGaussianBlur3934" />
    </filter>
  </defs>
  <sodipodi:namedview
     id="base"
     pagecolor="#ffffff"
     bordercolor="#666666"
     borderopacity="1.0"
     inkscape:pageopacity="0.0"
     inkscape:pageshadow="2"
     inkscape:zoom="1.4142136"
     inkscape:cx="170.75757"
     inkscape:cy="35.832167"
     inkscape:document-units="px"
     inkscape:current-layer="layer1"
     showgrid="false"
     inkscape:window-width="1024"
     inkscape:window-height="717"
     inkscape:window-x="-4"
     inkscape:window-y="-4"
     inkscape:window-maximized="1"
     inkscape:snap-bbox="true"
     inkscape:snap-global="false" />
  <metadata
     id="metadata7">
    <rdf:RDF>
      <cc:Work
         rdf:about="">
        <dc:format>image/svg+xml</dc:format>
        <dc:type
           rdf:resource="http://purl.org/dc/dcmitype/StillImage" />
        <dc:title></dc:title>
      </cc:Work>
    </rdf:RDF>
  </metadata>
  <g
     inkscape:label="Layer 1"
     inkscape:groupmode="layer"
     id="layer1"
     transform="translate(0,-852.36218)">
    <path
       sodipodi:type="arc"
       style="fill:#717171;fill-opacity:1;stroke:#ffffff;stroke-width:1;stroke-linejoin:bevel;stroke-miterlimit:4;stroke-opacity:1;stroke-dasharray:none"
       id="path2985"
       sodipodi:cx="130"
       sodipodi:cy="63"
       sodipodi:rx="71"
       sodipodi:ry="71"
       d="M 201,63 A 71,71 0 1 1 59,63 71,71 0 1 1 201,63 z"
       transform="translate(18.5,885.86218)" />
    <rect
       style="fill:#4a4a4a;fill-opacity:1;stroke:none;stroke-width:1;stroke-linejoin:bevel;stroke-miterlimit:4;stroke-opacity:1;stroke-dasharray:none"
       id="rect2987"
       width="300"
       height="200"
       x="0"
       y="852.36218" />
    <path
       style="fill:url(#linearGradient3833);stroke:none;stroke-width:1px;stroke-linecap:butt;stroke-linejoin:miter;stroke-opacity:1;fill-opacity:1;opacity:0.66244726"
       d="M 101.08108,149.18919 202.43243,47.837838 348.1081,180 c -42.44553,24.50594 -65.97215,66.30919 -108.41769,90.81513 z"
       id="path3825"
       inkscape:connector-curvature="0"
       transform="translate(0,852.36218)"
       sodipodi:nodetypes="ccccc" />
    <rect
       style="fill:#000000;fill-opacity:1;stroke:none"
       id="rect3936"
       width="10.606602"
       height="36.592773"
       x="144.95689"
       y="1016.4559" />
    <path
       transform="matrix(1.2987013,0,0,1.2987013,-25.419107,633.10361)"
       d="m 191.62593,246.66905 a 54.447224,54.447224 0 1 1 -108.894443,0 54.447224,54.447224 0 1 1 108.894443,0 z"
       sodipodi:ry="54.447224"
       sodipodi:rx="54.447224"
       sodipodi:cy="246.66905"
       sodipodi:cx="137.17871"
       id="path3767"
       style="fill:#000000;fill-opacity:1;stroke:none"
       sodipodi:type="arc" />
    <path
       sodipodi:type="arc"
       style="fill:#2d2d2d;fill-opacity:1;stroke:none"
       id="path3759"
       sodipodi:cx="137.17871"
       sodipodi:cy="246.66905"
       sodipodi:rx="54.447224"
       sodipodi:ry="54.447224"
       d="m 191.62593,246.66905 a 54.447224,54.447224 0 1 1 -108.894443,0 54.447224,54.447224 0 1 1 108.894443,0 z"
       transform="matrix(1.2987013,0,0,1.2987013,-25.419107,629.83584)" />
    <path
       transform="matrix(1.1558442,0,0,1.1558442,-5.8221488,665.07428)"
       d="m 191.62593,246.66905 a 54.447224,54.447224 0 1 1 -108.894443,0 54.447224,54.447224 0 1 1 108.894443,0 z"
       sodipodi:ry="54.447224"
       sodipodi:rx="54.447224"
       sodipodi:cy="246.66905"
       sodipodi:cx="137.17871"
       id="path3761"
       style="fill:#292525;fill-opacity:1;stroke:none"
       sodipodi:type="arc" />
    <g
       style="font-size:58.84187698px;font-style:normal;font-variant:normal;font-weight:normal;font-stretch:normal;line-height:125%;letter-spacing:0px;word-spacing:0px;fill:#f5f5f5;fill-opacity:1;stroke:none;font-family:olivier;-inkscape-font-specification:olivier"
       id="text3771">
      <path
         d="m 131.68215,951.09724 c 0.11849,0.23585 0.12866,0.74613 0.0305,1.53084 -0.0982,0.78474 -0.23557,1.61825 -0.41212,2.50053 -0.17661,0.8823 -0.36306,1.70593 -0.55936,2.4709 -0.19636,0.76498 -0.35319,1.22588 -0.47048,1.38269 -0.78535,1.01997 -1.66824,2.02018 -2.64867,3.00064 -0.98049,0.98046 -2.09862,1.72568 -3.35439,2.23566 -2.07826,0.82483 -4.12747,1.16841 -6.14762,1.03074 -2.02019,-0.13767 -3.90329,-0.65753 -5.64931,-1.55958 -1.74604,-0.90204 -3.32507,-2.12791 -4.73709,-3.67761 -1.41203,-1.5497 -2.54961,-3.305 -3.41275,-5.26593 -0.82363,-1.84358 -1.36294,-3.96192 -1.61793,-6.35502 -0.255,-2.39307 -0.21579,-4.79573 0.11762,-7.20799 0.3334,-2.41221 0.961,-4.6775 1.8828,-6.79587 0.92179,-2.11831 2.18717,-3.82513 3.79613,-5.12047 1.68677,-1.33358 3.39299,-2.20629 5.11868,-2.61815 1.72566,-0.41178 3.39268,-0.52939 5.00106,-0.35286 1.60834,0.17662 3.09907,0.57886 4.47222,1.20672 1.37309,0.62794 2.53013,1.29445 3.47111,1.99953 0.27531,0.19636 0.75626,0.54952 1.44285,1.05947 0.68653,0.51001 1.25517,1.04933 1.70593,1.61793 0.45069,0.56868 0.62697,1.06878 0.52883,1.50032 -0.0982,0.4316 -0.77458,0.66714 -2.02915,0.70661 -0.86317,0.0395 -1.6871,-0.0191 -2.4718,-0.17598 -0.78475,-0.15679 -1.56917,-0.34325 -2.35328,-0.55936 -0.78415,-0.21605 -1.56857,-0.41238 -2.35328,-0.58899 -0.78474,-0.17655 -1.60867,-0.26484 -2.4718,-0.26487 -4.51084,3e-5 -7.29598,3.07967 -8.35544,9.23893 -0.15684,0.94098 -0.30408,2.02948 -0.44175,3.26551 -0.13768,1.23606 -0.21609,2.53077 -0.23523,3.88412 -0.0192,1.35338 0.0497,2.67712 0.2065,3.97122 0.15682,1.29412 0.44114,2.4709 0.85297,3.53037 0.4118,1.05947 0.98044,1.92261 1.70592,2.58941 0.72546,0.66681 1.67659,1.03972 2.85339,1.11873 1.05945,0.0778 2.08929,-0.05 3.08952,-0.38338 1.00019,-0.3334 1.9612,-0.78443 2.88301,-1.35307 0.92178,-0.56864 1.80437,-1.18636 2.64778,-1.85318 0.84336,-0.6668 1.63796,-1.3336 2.38381,-2.00042 0.11729,-0.11851 0.42137,-0.48184 0.91222,-1.09 0.4908,-0.60813 1.04987,-1.18665 1.67719,-1.73555 0.62728,-0.54888 1.21567,-0.96069 1.76519,-1.23545 0.54946,-0.27473 0.94152,-0.15711 1.17619,0.35286 0.11849,0.23585 0.17774,0.36364 0.17777,0.38338 -3e-5,0.0198 -0.01,10e-6 -0.0296,-0.0593 -0.0198,-0.0592 -0.0494,-0.12808 -0.0889,-0.20651 -0.0395,-0.0784 -0.0593,-0.1176 -0.0593,-0.11761 z"
         style=""
         id="path3842" />
      <path
         d="m 149.88707,940.21163 c -0.11733,0.51001 -0.45044,0.9317 -0.99931,1.26508 -0.54891,0.33343 -1.17651,0.67671 -1.8828,1.02984 -0.70633,0.35318 -1.4321,0.74554 -2.1773,1.17709 -0.74524,0.43159 -1.37284,1.00053 -1.88281,1.70682 -0.78533,1.13731 -1.33482,2.49037 -1.64846,4.05921 -0.31366,1.56887 -0.46061,3.06918 -0.44085,4.50095 0.0198,1.43179 0.19632,2.66754 0.52974,3.70725 0.33339,1.03972 0.75508,1.55958 1.26508,1.55957 0.62729,10e-6 1.28422,-0.29419 1.97079,-0.88259 0.68655,-0.58839 1.30457,-1.26507 1.85407,-2.03005 0.54947,-0.76496 1.0005,-1.54939 1.35307,-2.35328 0.35254,-0.80387 0.52882,-1.42189 0.52884,-1.85407 -2e-5,-0.43096 -0.0195,-1.02893 -0.0584,-1.79392 -0.0389,-0.76496 -0.029,-1.52005 0.0296,-2.26529 0.0586,-0.7452 0.17626,-1.39256 0.35285,-1.94206 0.17656,-0.54947 0.48034,-0.84397 0.91133,-0.88349 0.43215,-0.0383 0.9523,-0.13586 1.56047,-0.2927 0.60813,-0.15681 1.18665,-0.17656 1.73556,-0.0593 0.54886,0.11734 0.99001,0.49953 1.32343,1.14656 0.33339,0.64707 0.46118,1.75533 0.38339,3.32476 -0.11854,3.17723 0.038,5.57989 0.46958,7.20799 0.43154,1.62812 1.27523,2.57984 2.53105,2.85518 0.86312,0.15683 1.63796,-0.0494 2.32455,-0.61862 0.68653,-0.56924 1.30426,-1.20671 1.85318,-1.91244 0.54886,-0.7057 1.01963,-1.34318 1.41232,-1.91243 0.39263,-0.56923 0.70628,-0.79459 0.94096,-0.67609 0.27531,0.11734 0.37347,0.60756 0.29449,1.47069 -0.079,0.86315 -0.37324,1.83403 -0.88259,2.91265 -0.50941,1.07863 -1.26451,2.15725 -2.26529,3.23587 -1.00084,1.07863 -2.28537,1.91243 -3.8536,2.50143 -0.82365,0.31365 -1.58863,0.47047 -2.29492,0.47047 -0.70633,0 -1.34381,-0.0982 -1.91243,-0.2945 -0.56866,-0.19633 -1.06877,-0.47107 -1.50032,-0.82423 -0.43158,-0.35315 -0.82395,-0.74521 -1.17708,-1.17619 -0.78535,-0.98045 -1.41325,-2.19675 -1.88371,-3.64888 -0.39148,0.94215 -0.94037,1.76638 -1.64666,2.47269 -0.58901,0.62731 -1.35428,1.20582 -2.29582,1.73556 -0.94156,0.52973 -2.0989,0.83351 -3.47201,0.91132 -1.37193,0.0395 -2.66604,-0.39176 -3.88233,-1.29381 -1.2163,-0.90204 -2.18718,-2.11804 -2.91264,-3.64799 -0.72547,-1.52994 -1.11783,-3.305 -1.17709,-5.32518 -0.0593,-2.02016 0.38219,-4.14838 1.32434,-6.38465 0.6273,-1.45212 1.45093,-2.68816 2.4709,-3.70815 1.01995,-1.01994 2.10845,-1.85345 3.2655,-2.50053 1.15702,-0.64703 2.31406,-1.1175 3.47111,-1.41143 1.15702,-0.29387 2.19674,-0.46057 3.11915,-0.5001 0.92238,-0.0395 1.6679,0.0291 2.23656,0.20561 0.56862,0.1766 0.81344,0.42172 0.73444,0.73534 z"
         style=""
         id="path3844" />
      <path
         d="m 180.26333,924.20645 c -2e-5,0.58904 -0.28434,0.95207 -0.85296,1.0891 -0.56866,0.13712 -1.21571,0.21553 -1.94116,0.23524 -0.72549,0.0198 -1.44138,0.0982 -2.14768,0.23524 -0.70632,0.13711 -1.19655,0.50014 -1.47068,1.0891 -0.27536,0.58783 -0.50132,1.30342 -0.67788,2.14677 -0.17659,0.84342 -0.32354,1.76552 -0.44085,2.7663 -0.11733,1.00084 -0.19575,2.04055 -0.23524,3.11915 -0.0395,1.07865 -0.0593,2.1471 -0.0593,3.20534 -1e-5,2.43262 0.0784,5.04178 0.23524,7.82751 0.43216,-0.1185 0.98164,-0.25617 1.64846,-0.41301 0.54828,-0.11731 1.23454,-0.25438 2.05879,-0.41122 0.82421,-0.15681 1.80497,-0.33339 2.94227,-0.52974 1.17677,-0.1568 2.10844,-0.1568 2.79503,0 0.68653,0.15685 1.14743,0.38251 1.38269,0.67699 0.23522,0.29451 0.2451,0.60846 0.0296,0.94185 -0.21551,0.33342 -0.6375,0.55878 -1.26597,0.67608 -1.29413,0.31367 -2.50983,0.65695 -3.64709,1.02984 -1.1373,0.37293 -2.13752,0.73596 -3.00064,1.0891 -1.01998,0.43099 -1.92262,0.8428 -2.70793,1.23545 0.19632,3.0204 0.27473,5.76604 0.23524,8.23693 -2e-5,1.05948 -0.0293,2.12852 -0.088,3.20714 -0.0587,1.07863 -0.14696,2.06926 -0.26487,2.9719 -0.11793,0.90265 -0.28463,1.68737 -0.50011,2.35418 -0.21549,0.66681 -0.46031,1.13728 -0.73444,1.41143 -0.5495,0.50998 -1.14777,0.95142 -1.79482,1.32434 -0.64706,0.3729 -1.25521,0.61802 -1.82444,0.73534 -0.56925,0.11732 -1.06965,0.0877 -1.50121,-0.0889 -0.43158,-0.17658 -0.70602,-0.55877 -0.82334,-1.14656 -0.0778,-0.31365 -0.13648,-0.7943 -0.17598,-1.44195 -0.0395,-0.64766 -0.0691,-1.37343 -0.0889,-2.1773 -0.0198,-0.80388 -0.0198,-1.6766 0,-2.61815 0.0197,-0.94155 0.0296,-1.86365 0.0296,-2.7663 0.0395,-2.15724 0.079,-4.49106 0.11852,-7.00148 -0.15803,0.0778 -0.31545,0.176 -0.47227,0.2945 -0.35316,0.23465 -0.84339,0.37173 -1.47069,0.41122 -0.86314,0.11733 -1.51049,-0.11821 -1.94206,-0.70661 -0.43157,-0.58839 -0.43127,-1.37281 9e-4,-2.35328 0.19633,-0.47046 0.48065,-0.90173 0.85296,-1.29381 0.37231,-0.39205 0.77455,-0.74551 1.20672,-1.06037 0.47047,-0.35194 0.99961,-0.64584 1.58741,-0.8817 -0.19514,-3.02036 -0.2538,-5.92343 -0.17598,-8.7092 -1e-5,-1.17676 0.0392,-2.39275 0.11762,-3.64798 0.0784,-1.25518 0.19602,-2.48105 0.35285,-3.67762 0.15682,-1.19651 0.35316,-2.32422 0.589,-3.38312 0.23583,-1.05884 0.52973,-1.98093 0.88169,-2.7663 0.58899,-1.29406 1.32493,-2.26465 2.20783,-2.91174 0.88288,-0.64701 1.81456,-1.04895 2.79502,-1.20582 0.98045,-0.15678 1.96091,-0.14721 2.94138,0.0287 0.98044,0.17602 1.86303,0.44059 2.64778,0.7937 0.78471,0.3532 1.42218,0.72611 1.91243,1.11873 0.49021,0.39271 0.73532,0.70636 0.73534,0.94095 z"
         style=""
         id="path3846" />
      <path
         d="m 183.79011,942.62507 c 0.54948,-1.05945 1.27525,-1.98155 2.1773,-2.7663 0.90204,-0.7847 1.89267,-1.42217 2.9719,-1.91243 1.07921,-0.4902 2.2168,-0.85293 3.41275,-1.0882 1.19593,-0.23521 2.36314,-0.35283 3.50164,-0.35286 1.17677,0.0779 2.18686,0.46003 3.03026,1.14656 0.84337,0.68659 1.44164,1.56918 1.79481,2.64778 0.35314,1.07865 0.42168,2.28507 0.20561,3.61926 -0.2161,1.33423 -0.79462,2.6879 -1.73555,4.061 -1.01998,1.49046 -2.10878,2.60829 -3.2664,3.35349 -1.15765,0.74523 -2.2267,1.27467 -3.20714,1.58831 -1.1373,0.39267 -2.25483,0.56925 -3.3526,0.52973 -0.0395,1.49045 0.11732,2.76541 0.47048,3.82487 0.15682,0.47048 0.34297,0.91163 0.55847,1.32344 0.21547,0.41182 0.49979,0.77455 0.85296,1.0882 0.35315,0.31366 0.78471,0.53932 1.29471,0.67698 0.50997,0.13768 1.09836,0.14785 1.76518,0.0305 1.41261,-0.23583 2.56007,-0.75599 3.44238,-1.56047 0.88228,-0.80448 1.61762,-1.61853 2.20603,-2.44217 0.58838,-0.82362 1.06903,-1.53951 1.44196,-2.14767 0.37289,-0.60814 0.73592,-0.8338 1.0891,-0.67699 0.43095,0.19635 0.65631,0.68687 0.67608,1.47159 0.0197,0.78474 -0.16642,1.70683 -0.55846,2.76629 -0.39209,1.05948 -0.97061,2.14798 -1.73556,3.26551 -0.76499,1.11753 -1.73587,2.06866 -2.91264,2.85338 -1.17681,0.78473 -2.53017,1.32434 -4.06011,1.61883 -1.52995,0.2945 -3.23648,0.14725 -5.11957,-0.44174 -1.52995,-0.47048 -2.80491,-1.2157 -3.82487,-2.23566 -1.01996,-1.01996 -1.82414,-2.19675 -2.41253,-3.53037 -0.5884,-1.33361 -0.98076,-2.76539 -1.17709,-4.29534 -0.19633,-1.52994 -0.22566,-3.05001 -0.088,-4.56021 0.13767,-1.51018 0.43187,-2.95183 0.88259,-4.32497 0.45072,-1.3731 1.00949,-2.54989 1.6763,-3.53037 z m 5.47333,6.41248 c 0.50997,-0.0778 1.07861,-0.23462 1.70592,-0.47047 0.54948,-0.19632 1.14775,-0.49051 1.79482,-0.88259 0.64704,-0.39205 1.34347,-0.94124 2.08931,-1.64757 0.70629,-0.66679 1.18695,-1.31384 1.44195,-1.94116 0.25498,-0.62728 0.40163,-1.15702 0.43995,-1.58921 0.0395,-0.50996 -0.0389,-0.98043 -0.23524,-1.41143 -0.5495,-0.1568 -1.13789,-0.1568 -1.76518,0 -0.5495,0.15685 -1.15765,0.4705 -1.82444,0.94095 -0.66682,0.4705 -1.35338,1.21572 -2.05969,2.23567 -0.5483,0.78414 -0.94006,1.48028 -1.17529,2.08841 -0.23525,0.60816 -0.39237,1.10857 -0.47137,1.50121 -0.079,0.4705 -0.0593,0.86256 0.0593,1.17619 z"
         style=""
         id="path3848" />
    </g>
    <path
       style="fill:#ffffff;fill-opacity:1;stroke:none"
       d="M 152.75 39.4375 C 120.50851 39.4375 94.34375 65.571011 94.34375 97.8125 C 94.34375 130.05399 120.50851 156.1875 152.75 156.1875 C 184.99149 156.1875 211.125 130.05399 211.125 97.8125 C 211.125 65.571011 184.99149 39.4375 152.75 39.4375 z M 152.75 41.59375 C 183.79736 41.59375 208.9375 66.765141 208.9375 97.8125 C 208.9375 128.85986 183.79736 154.03125 152.75 154.03125 C 121.70264 154.03125 96.53125 128.85986 96.53125 97.8125 C 96.53125 66.765141 121.70264 41.59375 152.75 41.59375 z "
       transform="translate(0,852.36218)"
       id="path3783" />
    <path
       style="fill:#f5f5f5;fill-opacity:1;stroke:none"
       d="m 138.59375,978.89005 c 0.14896,7.79733 3.41684,14.45609 8.0625,17.4375 -6.21799,0.10811 -10.6875,0.39021 -10.6875,0.71875 0,0.32285 4.29511,0.57544 10.34375,0.6875 0.0588,0.2543 0.28982,0.4375 0.5625,0.4375 l 10.875,0 c 0.27267,0 0.5037,-0.1832 0.5625,-0.4375 6.03411,-0.11238 10.34375,-0.36514 10.34375,-0.6875 0,-0.33432 -4.67202,-0.61493 -11.0625,-0.71875 4.64301,-2.98298 7.91359,-9.64296 8.0625,-17.4375 l -27.0625,0 z"
       id="path3792"
       inkscape:connector-curvature="0" />
    <path
       style="opacity:0.08438819;fill:#fffafa;stroke:none"
       d="M 152.75 27.125 C 113.69757 27.125 82.03125 58.76007 82.03125 97.8125 C 82.03125 118.52721 90.93153 137.16112 105.125 150.09375 L 201.78125 46.90625 C 189.06655 34.655534 171.80065 27.125 152.75 27.125 z "
       transform="translate(0,852.36218)"
       id="path3850" />
    <path
       sodipodi:type="arc"
       style="opacity:0.87341771999999984;fill:#ffffff;fill-opacity:1;stroke:none;filter:url(#filter3932)"
       id="path3858"
       sodipodi:cx="137.17871"
       sodipodi:cy="246.66905"
       sodipodi:rx="54.447224"
       sodipodi:ry="54.447224"
       d="m 191.62593,246.66905 a 54.447224,54.447224 0 1 1 -108.894443,0 54.447224,54.447224 0 1 1 108.894443,0 z"
       transform="matrix(1.1558442,0,0,1.1558442,-5.8221542,665.07427)" />
  </g>
</svg>
